<svg xmlns="http://www.w3.org/2000/svg" width="144" height="144" viewBox="0 0 144 144"><rect width="17.68" height="17.68"/><polygon points="17.68 0 20.21 0 20.21 2.53 22.74 2.53 22.74 0 27.79 0 27.79 2.53 30.32 2.53 30.32 0 32.84 0 32.84 5.05 20.21 5.05 20.21 7.58 25.26 7.58 25.26 10.11 20.21 10.11 20.21 12.63 22.74 12.63 22.74 15.16 20.21 15.16 20.21 20.21 22.74 20.21 22.74 15.16 25.26 15.16 25.26 20.21 27.79 20.21 27.79 22.74 25.26 22.74 25.26 25.26 20.21 25.26 20.21 22.74 17.68 22.74 17.68 20.21 12.63 20.21 12.63 22.74 5.05 22.74 5.05 27.79 2.53 27.79 2.53 32.84 5.05 32.84 5.05 35.37 7.58 35.37 7.58 32.84 12.63 32.84 12.63 30.32 10.11 30.32 10.11 27.79 12.63 27.79 12.63 22.74 17.68 22.74 17.68 25.26 15.16 25.26 15.16 27.79 17.68 27.79 17.68 30.32 15.16 30.32 15.16 32.84 22.74 32.84 22.74 35.37 15.16 35.37 15.16 37.9 17.68 37.9 17.68 40.42 12.63 40.42 12.63 42.95 17.68 42.95 17.68 40.42 22.74 40.42 22.74 42.95 25.26 42.95 25.26 40.42 27.79 40.42 27.79 42.95 30.32 42.95 30.32 37.9 32.84 37.9 32.84 40.42 35.37 40.42 35.37 42.95 37.9 42.95 37.9 37.9 40.42 37.9 40.42 32.84 42.95 32.84 42.95 27.79 48 27.79 48 20.21 45.47 20.21 45.47 17.68 48 17.68 48 15.16 50.53 15.16 50.53 22.74 53.05 22.74 53.05 25.26 50.53 25.26 50.53 30.32 48 30.32 48 35.37 45.47 35.37 45.47 45.47 42.95 45.47 42.95 40.42 40.42 40.42 40.42 60.63 37.9 60.63 37.9 63.16 35.37 63.16 35.37 58.1 30.32 58.1 30.32 60.63 32.84 60.63 32.84 63.16 30.32 63.16 30.32 65.68 27.79 65.68 27.79 63.16 22.74 63.16 22.74 65.68 20.21 65.68 20.21 60.63 15.16 60.63 15.16 58.1 20.21 58.1 20.21 55.58 22.74 55.58 22.74 60.63 25.26 60.63 25.26 53.05 20.21 53.05 20.21 55.58 15.16 55.58 15.16 53.05 17.68 53.05 17.68 50.53 15.16 50.53 15.16 48 17.68 48 17.68 45.47 15.16 45.47 15.16 48 7.58 48 7.58 45.47 10.11 45.47 10.11 42.95 2.53 42.95 2.53 40.42 0 40.42 0 17.68 17.68 17.68 17.68 0" fill="#fff"/><rect x="20.21" width="2.53" height="2.53"/><rect x="27.79" width="2.53" height="2.53"/><polygon points="32.84 0 35.37 0 35.37 7.58 27.79 7.58 27.79 20.21 25.26 20.21 25.26 15.16 22.74 15.16 22.74 12.63 20.21 12.63 20.21 10.11 25.26 10.11 25.26 7.58 20.21 7.58 20.21 5.05 32.84 5.05 32.84 0"/><rect x="35.37" width="2.53" height="7.58" fill="#fff"/><polygon points="37.9 0 42.95 0 42.95 2.53 50.53 2.53 50.53 5.05 53.05 5.05 53.05 7.58 55.58 7.58 55.58 12.63 53.05 12.63 53.05 10.11 50.53 10.11 50.53 7.58 48 7.58 48 12.63 42.95 12.63 42.95 7.58 45.47 7.58 45.47 5.05 42.95 5.05 42.95 7.58 40.42 7.58 40.42 10.11 35.37 10.11 35.37 7.58 37.9 7.58 37.9 0"/><rect x="42.95" width="7.58" height="2.53" fill="#fff"/><rect x="50.53" width="2.53" height="2.53"/><polygon points="53.05 0 60.63 0 60.63 5.05 58.1 5.05 58.1 7.58 63.16 7.58 63.16 10.11 58.1 10.11 58.1 15.16 55.58 15.16 55.58 17.68 58.1 17.68 58.1 15.16 60.63 15.16 60.63 20.21 53.05 20.21 53.05 15.16 50.53 15.16 50.53 12.63 48 12.63 48 7.58 50.53 7.58 50.53 10.11 53.05 10.11 53.05 12.63 55.58 12.63 55.58 7.58 53.05 7.58 53.05 5.05 55.58 5.05 55.58 2.53 53.05 2.53 53.05 0" fill="#fff"/><polygon points="60.63 0 70.74 0 70.74 7.58 68.21 7.58 68.21 10.11 75.79 10.11 75.79 7.58 78.32 7.58 78.32 5.05 75.79 5.05 75.79 2.53 73.26 2.53 73.26 0 78.32 0 78.32 2.53 80.84 2.53 80.84 5.05 83.37 5.05 83.37 7.58 80.84 7.58 80.84 10.11 78.32 10.11 78.32 17.68 80.84 17.68 80.84 20.21 78.32 20.21 78.32 22.74 80.84 22.74 80.84 25.26 85.89 25.26 85.89 22.74 80.84 22.74 80.84 20.21 85.89 20.21 85.89 15.16 88.42 15.16 88.42 17.68 90.95 17.68 90.95 15.16 93.47 15.16 93.47 17.68 96 17.68 96 12.63 98.53 12.63 98.53 10.11 96 10.11 96 12.63 93.47 12.63 93.47 7.58 90.95 7.58 90.95 5.05 88.42 5.05 88.42 2.53 93.47 2.53 93.47 5.05 96 5.05 96 0 98.53 0 98.53 5.05 108.63 5.05 108.63 2.53 111.16 2.53 111.16 0 121.26 0 121.26 12.63 118.74 12.63 118.74 7.58 116.21 7.58 116.21 10.11 113.68 10.11 113.68 12.63 118.74 12.63 118.74 17.68 121.26 17.68 121.26 15.16 123.79 15.16 123.79 20.21 116.21 20.21 116.21 15.16 113.68 15.16 113.68 17.68 111.16 17.68 111.16 15.16 108.63 15.16 108.63 12.63 103.58 12.63 103.58 10.11 106.11 10.11 106.11 7.58 103.58 7.58 103.58 10.11 101.05 10.11 101.05 15.16 98.53 15.16 98.53 22.74 96 22.74 96 20.21 88.42 20.21 88.42 22.74 96 22.74 96 25.26 93.47 25.26 93.47 27.79 90.95 27.79 90.95 30.32 88.42 30.32 88.42 27.79 85.89 27.79 85.89 32.84 93.47 32.84 93.47 35.37 88.42 35.37 88.42 40.42 85.89 40.42 85.89 45.47 80.84 45.47 80.84 42.95 83.37 42.95 83.37 40.42 80.84 40.42 80.84 37.9 83.37 37.9 83.37 30.32 80.84 30.32 80.84 27.79 75.79 27.79 75.79 22.74 73.26 22.74 73.26 25.26 70.74 25.26 70.74 22.74 68.21 22.74 68.21 25.26 65.68 25.26 65.68 22.74 63.16 22.74 63.16 20.21 65.68 20.21 65.68 15.16 63.16 15.16 63.16 12.63 65.68 12.63 65.68 10.11 63.16 10.11 63.16 7.58 58.1 7.58 58.1 5.05 60.63 5.05 60.63 0"/><polygon points="70.74 0 73.26 0 73.26 2.53 75.79 2.53 75.79 5.05 78.32 5.05 78.32 7.58 75.79 7.58 75.79 10.11 68.21 10.11 68.21 7.58 70.74 7.58 70.74 0" fill="#fff"/><rect x="78.32" width="2.53" height="2.53" fill="#fff"/><rect x="80.84" width="2.53" height="2.53"/><polygon points="83.37 0 85.89 0 85.89 2.53 88.42 2.53 88.42 5.05 90.95 5.05 90.95 7.58 88.42 7.58 88.42 10.11 90.95 10.11 90.95 7.58 93.47 7.58 93.47 12.63 96 12.63 96 17.68 93.47 17.68 93.47 15.16 90.95 15.16 90.95 17.68 88.42 17.68 88.42 15.16 85.89 15.16 85.89 20.21 80.84 20.21 80.84 17.68 83.37 17.68 83.37 10.11 80.84 10.11 80.84 7.58 83.37 7.58 83.37 5.05 80.84 5.05 80.84 2.53 83.37 2.53 83.37 0" fill="#fff"/><rect x="85.89" width="2.53" height="2.53"/><polygon points="88.42 0 96 0 96 5.05 93.47 5.05 93.47 2.53 88.42 2.53 88.42 0" fill="#fff"/><polygon points="98.53 0 103.58 0 103.58 2.53 108.63 2.53 108.63 5.05 98.53 5.05 98.53 0" fill="#fff"/><rect x="103.58" width="5.05" height="2.53"/><rect x="108.63" width="2.53" height="2.53" fill="#fff"/><polygon points="121.26 0 126.32 0 126.32 17.68 144 17.68 144 20.21 141.47 20.21 141.47 22.74 144 22.74 144 32.84 141.47 32.84 141.47 25.26 138.95 25.26 138.95 27.79 128.84 27.79 128.84 25.26 131.37 25.26 131.37 22.74 133.9 22.74 133.9 25.26 136.42 25.26 136.42 22.74 138.95 22.74 138.95 20.21 136.42 20.21 136.42 22.74 133.9 22.74 133.9 20.21 131.37 20.21 131.37 22.74 128.84 22.74 128.84 20.21 126.32 20.21 126.32 22.74 116.21 22.74 116.21 27.79 121.26 27.79 121.26 30.32 118.74 30.32 118.74 35.37 116.21 35.37 116.21 37.9 113.68 37.9 113.68 35.37 108.63 35.37 108.63 32.84 113.68 32.84 113.68 25.26 108.63 25.26 108.63 22.74 113.68 22.74 113.68 20.21 108.63 20.21 108.63 22.74 103.58 22.74 103.58 25.26 101.05 25.26 101.05 27.79 96 27.79 96 32.84 98.53 32.84 98.53 30.32 101.05 30.32 101.05 32.84 103.58 32.84 103.58 35.37 101.05 35.37 101.05 37.9 103.58 37.9 103.58 35.37 108.63 35.37 108.63 37.9 106.11 37.9 106.11 42.95 103.58 42.95 103.58 45.47 101.05 45.47 101.05 48 98.53 48 98.53 50.53 93.47 50.53 93.47 45.47 96 45.47 96 42.95 98.53 42.95 98.53 40.42 96 40.42 96 37.9 98.53 37.9 98.53 35.37 96 35.37 96 37.9 93.47 37.9 93.47 40.42 88.42 40.42 88.42 35.37 93.47 35.37 93.47 32.84 85.89 32.84 85.89 27.79 88.42 27.79 88.42 30.32 90.95 30.32 90.95 27.79 93.47 27.79 93.47 25.26 96 25.26 96 22.74 98.53 22.74 98.53 15.16 101.05 15.16 101.05 20.21 106.11 20.21 106.11 17.68 108.63 17.68 108.63 15.16 111.16 15.16 111.16 17.68 113.68 17.68 113.68 15.16 116.21 15.16 116.21 20.21 123.79 20.21 123.79 15.16 121.26 15.16 121.26 17.68 118.74 17.68 118.74 12.63 121.26 12.63 121.26 0" fill="#fff"/><rect x="126.32" width="17.68" height="17.68"/><rect x="2.53" y="2.53" width="12.63" height="12.63" fill="#fff"/><rect x="50.53" y="2.53" width="2.53" height="2.53" fill="#fff"/><rect x="53.05" y="2.53" width="2.53" height="2.53"/><rect x="63.16" y="2.53" width="2.53" height="2.53" fill="#fff"/><rect x="116.21" y="2.53" width="2.53" height="2.53" fill="#fff"/><rect x="128.84" y="2.53" width="12.63" height="12.63" fill="#fff"/><rect x="5.05" y="5.05" width="7.58" height="7.58"/><rect x="42.95" y="5.05" width="2.53" height="2.53" fill="#fff"/><rect x="131.37" y="5.05" width="7.58" height="7.58"/><polygon points="27.79 7.58 35.37 7.58 35.37 10.11 30.32 10.11 30.32 12.63 35.37 12.63 35.37 10.11 40.42 10.11 40.42 7.58 42.95 7.58 42.95 12.63 37.9 12.63 37.9 15.16 35.37 15.16 35.37 20.21 27.79 20.21 27.79 7.58" fill="#fff"/><rect x="88.42" y="7.58" width="2.53" height="2.53"/><rect x="103.58" y="7.58" width="2.53" height="2.53" fill="#fff"/><polygon points="116.21 7.58 118.74 7.58 118.74 12.63 113.68 12.63 113.68 10.11 116.21 10.11 116.21 7.58" fill="#fff"/><rect x="30.32" y="10.11" width="5.05" height="2.53"/><polygon points="58.1 10.11 63.16 10.11 63.16 12.63 60.63 12.63 60.63 15.16 58.1 15.16 58.1 10.11"/><rect x="63.16" y="10.11" width="2.53" height="2.53" fill="#fff"/><rect x="78.32" y="10.11" width="2.53" height="7.58" fill="#fff"/><rect x="80.84" y="10.11" width="2.53" height="7.58"/><rect x="96" y="10.11" width="2.53" height="2.53" fill="#fff"/><polygon points="101.05 10.11 103.58 10.11 103.58 12.63 108.63 12.63 108.63 15.16 106.11 15.16 106.11 17.68 103.58 17.68 103.58 15.16 101.05 15.16 101.05 10.11" fill="#fff"/><polygon points="37.9 12.63 42.95 12.63 42.95 17.68 40.42 17.68 40.42 15.16 37.9 15.16 37.9 12.63"/><polygon points="42.95 12.63 48 12.63 48 15.16 45.47 15.16 45.47 17.68 42.95 17.68 42.95 12.63" fill="#fff"/><rect x="48" y="12.63" width="2.53" height="2.53"/><rect x="60.63" y="12.63" width="2.53" height="2.53" fill="#fff"/><rect x="68.21" y="12.63" width="7.58" height="7.58" fill="#fff"/><rect x="20.21" y="15.16" width="2.53" height="5.05"/><rect x="30.32" y="15.16" width="2.53" height="2.53"/><polygon points="35.37 15.16 37.9 15.16 37.9 17.68 40.42 17.68 40.42 20.21 35.37 20.21 35.37 15.16"/><rect x="37.89" y="15.16" width="2.53" height="2.53" fill="#fff"/><rect x="45.47" y="15.16" width="2.53" height="2.53"/><polygon points="50.53 15.16 53.05 15.16 53.05 20.21 60.63 20.21 60.63 25.26 58.1 25.26 58.1 27.79 60.63 27.79 60.63 37.9 58.1 37.9 58.1 30.32 55.58 30.32 55.58 25.26 53.05 25.26 53.05 22.74 50.53 22.74 50.53 15.16"/><rect x="55.58" y="15.16" width="2.53" height="2.53"/><rect x="60.63" y="15.16" width="2.53" height="5.05"/><rect x="63.16" y="15.16" width="2.53" height="5.05" fill="#fff"/><rect x="70.74" y="15.16" width="2.53" height="2.53"/><polygon points="101.05 15.16 103.58 15.16 103.58 17.68 106.11 17.68 106.11 20.21 101.05 20.21 101.05 15.16"/><rect x="106.11" y="15.16" width="2.53" height="2.53"/><rect x="40.42" y="17.68" width="2.53" height="2.53" fill="#fff"/><rect x="42.95" y="17.68" width="2.53" height="2.53"/><rect x="12.63" y="20.21" width="5.05" height="2.53"/><polygon points="27.79 20.21 35.37 20.21 35.37 22.74 30.32 22.74 30.32 25.26 32.84 25.26 32.84 27.79 37.9 27.79 37.9 32.84 35.37 32.84 35.37 37.9 37.9 37.9 37.9 42.95 35.37 42.95 35.37 40.42 32.84 40.42 32.84 37.9 30.32 37.9 30.32 35.37 27.79 35.37 27.79 37.9 30.32 37.9 30.32 42.95 27.79 42.95 27.79 40.42 25.26 40.42 25.26 42.95 22.74 42.95 22.74 40.42 17.68 40.42 17.68 37.9 15.16 37.9 15.16 35.37 22.74 35.37 22.74 37.9 25.26 37.9 25.26 35.37 22.74 35.37 22.74 32.84 15.16 32.84 15.16 30.32 17.68 30.32 17.68 27.79 20.21 27.79 20.21 25.26 25.26 25.26 25.26 22.74 27.79 22.74 27.79 20.21"/><polygon points="35.37 20.21 40.42 20.21 40.42 22.74 42.95 22.74 42.95 20.21 45.47 20.21 45.47 25.26 40.42 25.26 40.42 32.84 37.9 32.84 37.9 27.79 32.84 27.79 32.84 25.26 30.32 25.26 30.32 22.74 35.37 22.74 35.37 25.26 37.9 25.26 37.9 22.74 35.37 22.74 35.37 20.21" fill="#fff"/><rect x="40.42" y="20.21" width="2.53" height="2.53"/><polygon points="45.47 20.21 48 20.21 48 27.79 42.95 27.79 42.95 32.84 40.42 32.84 40.42 25.26 45.47 25.26 45.47 20.21"/><polygon points="60.63 20.21 63.16 20.21 63.16 22.74 65.68 22.74 65.68 25.26 68.21 25.26 68.21 27.79 65.68 27.79 65.68 30.32 63.16 30.32 63.16 32.84 68.21 32.84 68.21 37.9 73.26 37.9 73.26 35.37 75.79 35.37 75.79 40.42 73.26 40.42 73.26 42.95 75.79 42.95 75.79 45.47 78.32 45.47 78.32 48 75.79 48 75.79 50.53 70.74 50.53 70.74 48 68.21 48 68.21 50.53 70.74 50.53 70.74 53.05 73.26 53.05 73.26 55.58 65.68 55.58 65.68 58.1 68.21 58.1 68.21 60.63 70.74 60.63 70.74 58.1 75.79 58.1 75.79 63.16 73.26 63.16 73.26 65.68 70.74 65.68 70.74 63.16 68.21 63.16 68.21 65.68 65.68 65.68 65.68 63.16 63.16 63.16 63.16 60.63 60.63 60.63 60.63 53.05 53.05 53.05 53.05 50.53 42.95 50.53 42.95 48 45.47 48 45.47 45.47 48 45.47 48 48 50.53 48 50.53 45.47 53.05 45.47 53.05 48 63.16 48 63.16 45.47 70.74 45.47 70.74 42.95 65.68 42.95 65.68 40.42 63.16 40.42 63.16 37.9 60.63 37.9 60.63 27.79 63.16 27.79 63.16 25.26 60.63 25.26 60.63 20.21" fill="#fff"/><rect x="78.32" y="20.21" width="2.53" height="2.53" fill="#fff"/><rect x="88.42" y="20.21" width="7.58" height="2.53" fill="#fff"/><rect x="108.63" y="20.21" width="5.05" height="2.53"/><polygon points="126.32 20.21 128.84 20.21 128.84 22.74 131.37 22.74 131.37 25.26 128.84 25.26 128.84 27.79 126.32 27.79 126.32 25.26 121.26 25.26 121.26 27.79 116.21 27.79 116.21 22.74 126.32 22.74 126.32 20.21"/><rect x="131.37" y="20.21" width="2.53" height="2.53"/><rect x="136.42" y="20.21" width="2.53" height="2.53"/><rect x="141.47" y="20.21" width="2.53" height="2.53"/><polygon points="5.05 22.74 12.63 22.74 12.63 27.79 10.11 27.79 10.11 30.32 12.63 30.32 12.63 32.84 7.58 32.84 7.58 35.37 5.05 35.37 5.05 32.84 2.53 32.84 2.53 27.79 5.05 27.79 5.05 30.32 7.58 30.32 7.58 27.79 5.05 27.79 5.05 22.74"/><rect x="17.68" y="22.74" width="2.53" height="2.53"/><rect x="35.37" y="22.74" width="2.53" height="2.53"/><rect x="68.21" y="22.74" width="2.53" height="2.53" fill="#fff"/><polygon points="73.26 22.74 75.79 22.74 75.79 27.79 73.26 27.79 73.26 30.32 75.79 30.32 75.79 27.79 80.84 27.79 80.84 30.32 83.37 30.32 83.37 37.9 80.84 37.9 80.84 35.37 78.32 35.37 78.32 32.84 68.21 32.84 68.21 30.32 70.74 30.32 70.74 25.26 73.26 25.26 73.26 22.74" fill="#fff"/><rect x="80.84" y="22.74" width="5.05" height="2.53" fill="#fff"/><polygon points="103.58 22.74 108.63 22.74 108.63 25.26 106.11 25.26 106.11 27.79 103.58 27.79 103.58 32.84 101.05 32.84 101.05 30.32 98.53 30.32 98.53 32.84 96 32.84 96 27.79 101.05 27.79 101.05 25.26 103.58 25.26 103.58 22.74"/><rect x="133.89" y="22.74" width="2.53" height="2.53"/><rect x="15.16" y="25.26" width="2.53" height="2.53"/><rect x="17.68" y="25.26" width="2.53" height="2.53" fill="#fff"/><polygon points="50.53 25.26 53.05 25.26 53.05 32.84 50.53 32.84 50.53 35.37 48 35.37 48 30.32 50.53 30.32 50.53 25.26"/><polygon points="53.05 25.26 55.58 25.26 55.58 30.32 58.1 30.32 58.1 37.9 60.63 37.9 60.63 45.47 55.58 45.47 55.58 42.95 50.53 42.95 50.53 37.9 55.58 37.9 55.58 32.84 53.05 32.84 53.05 25.26" fill="#fff"/><rect x="58.11" y="25.26" width="2.53" height="2.53" fill="#fff"/><rect x="60.63" y="25.26" width="2.53" height="2.53"/><polygon points="68.21 25.26 70.74 25.26 70.74 30.32 68.21 30.32 68.21 32.84 63.16 32.84 63.16 30.32 65.68 30.32 65.68 27.79 68.21 27.79 68.21 25.26"/><polygon points="106.11 25.26 108.63 25.26 108.63 27.79 111.16 27.79 111.16 30.32 106.11 30.32 106.11 32.84 103.58 32.84 103.58 27.79 106.11 27.79 106.11 25.26" fill="#fff"/><polygon points="108.63 25.26 113.68 25.26 113.68 32.84 108.63 32.84 108.63 35.37 103.58 35.37 103.58 32.84 106.11 32.84 106.11 30.32 111.16 30.32 111.16 27.79 108.63 27.79 108.63 25.26"/><polygon points="121.26 25.26 126.32 25.26 126.32 27.79 128.84 27.79 128.84 30.32 123.79 30.32 123.79 27.79 121.26 27.79 121.26 25.26" fill="#fff"/><polygon points="138.95 25.26 141.47 25.26 141.47 32.84 138.95 32.84 138.95 30.32 136.42 30.32 136.42 32.84 131.37 32.84 131.37 30.32 128.84 30.32 128.84 27.79 138.95 27.79 138.95 25.26"/><rect x="5.05" y="27.79" width="2.53" height="2.53" fill="#fff"/><rect x="22.74" y="27.79" width="5.05" height="2.53" fill="#fff"/><rect x="73.26" y="27.79" width="2.53" height="2.53"/><rect x="121.26" y="27.79" width="2.53" height="2.53"/><rect x="30.32" y="30.32" width="2.53" height="2.53" fill="#fff"/><polygon points="118.74 30.32 121.26 30.32 121.26 32.84 123.79 32.84 123.79 30.32 128.84 30.32 128.84 32.84 126.32 32.84 126.32 35.37 128.84 35.37 128.84 37.9 131.37 37.9 131.37 40.42 126.32 40.42 126.32 37.9 123.79 37.9 123.79 35.37 118.74 35.37 118.74 30.32"/><rect x="121.26" y="30.32" width="2.53" height="2.53" fill="#fff"/><polygon points="128.84 30.32 131.37 30.32 131.37 32.84 136.42 32.84 136.42 35.37 133.9 35.37 133.9 40.42 138.95 40.42 138.95 42.95 136.42 42.95 136.42 50.53 138.95 50.53 138.95 53.05 136.42 53.05 136.42 58.1 133.9 58.1 133.9 55.58 131.37 55.58 131.37 58.1 128.84 58.1 128.84 48 126.32 48 126.32 42.95 118.74 42.95 118.74 40.42 116.21 40.42 116.21 37.9 118.74 37.9 118.74 35.37 123.79 35.37 123.79 37.9 121.26 37.9 121.26 40.42 123.79 40.42 123.79 37.9 126.32 37.9 126.32 40.42 131.37 40.42 131.37 37.9 128.84 37.9 128.84 35.37 126.32 35.37 126.32 32.84 128.84 32.84 128.84 30.32" fill="#fff"/><rect x="136.42" y="30.32" width="2.53" height="2.53" fill="#fff"/><rect x="35.37" y="32.84" width="2.53" height="5.05" fill="#fff"/><rect x="37.89" y="32.84" width="2.53" height="5.05"/><rect x="50.53" y="32.84" width="2.53" height="2.53" fill="#fff"/><polygon points="53.05 32.84 55.58 32.84 55.58 37.9 50.53 37.9 50.53 35.37 53.05 35.37 53.05 32.84"/><polygon points="68.21 32.84 78.32 32.84 78.32 35.37 80.84 35.37 80.84 37.9 78.32 37.9 78.32 40.42 75.79 40.42 75.79 35.37 73.26 35.37 73.26 37.9 68.21 37.9 68.21 32.84"/><rect x="136.42" y="32.84" width="2.53" height="2.53"/><polygon points="138.95 32.84 141.47 32.84 141.47 35.37 144 35.37 144 37.9 136.42 37.9 136.42 35.37 138.95 35.37 138.95 32.84" fill="#fff"/><rect x="141.47" y="32.84" width="2.53" height="2.53"/><rect x="22.74" y="35.37" width="2.53" height="2.53" fill="#fff"/><rect x="27.79" y="35.37" width="2.53" height="2.53" fill="#fff"/><polygon points="45.47 35.37 48 35.37 48 37.9 50.53 37.9 50.53 42.95 48 42.95 48 45.47 45.47 45.47 45.47 35.37"/><rect x="48" y="35.37" width="2.53" height="2.53" fill="#fff"/><rect x="96" y="35.37" width="2.53" height="2.53"/><rect x="101.05" y="35.37" width="2.53" height="2.53"/><polygon points="108.63 35.37 113.68 35.37 113.68 37.9 111.16 37.9 111.16 42.95 108.63 42.95 108.63 45.47 106.11 45.47 106.11 48 113.68 48 113.68 45.47 111.16 45.47 111.16 42.95 113.68 42.95 113.68 37.9 116.21 37.9 116.21 40.42 118.74 40.42 118.74 42.95 116.21 42.95 116.21 48 118.74 48 118.74 42.95 126.32 42.95 126.32 48 128.84 48 128.84 58.1 126.32 58.1 126.32 65.68 131.37 65.68 131.37 60.63 128.84 60.63 128.84 58.1 131.37 58.1 131.37 55.58 133.9 55.58 133.9 58.1 136.42 58.1 136.42 53.05 138.95 53.05 138.95 50.53 136.42 50.53 136.42 42.95 138.95 42.95 138.95 48 141.47 48 141.47 42.95 144 42.95 144 50.53 141.47 50.53 141.47 58.1 138.95 58.1 138.95 60.63 144 60.63 144 63.16 141.47 63.16 141.47 70.74 144 70.74 144 83.37 141.47 83.37 141.47 88.42 138.95 88.42 138.95 80.84 141.47 80.84 141.47 73.26 138.95 73.26 138.95 70.74 133.9 70.74 133.9 73.26 136.42 73.26 136.42 75.79 133.9 75.79 133.9 78.32 128.84 78.32 128.84 80.84 126.32 80.84 126.32 78.32 121.26 78.32 121.26 73.26 118.74 73.26 118.74 70.74 121.26 70.74 121.26 68.21 113.68 68.21 113.68 65.68 111.16 65.68 111.16 63.16 108.63 63.16 108.63 68.21 111.16 68.21 111.16 75.79 106.11 75.79 106.11 83.37 108.63 83.37 108.63 80.84 111.16 80.84 111.16 85.89 113.68 85.89 113.68 83.37 118.74 83.37 118.74 88.42 113.68 88.42 113.68 90.95 116.21 90.95 116.21 96 121.26 96 121.26 101.05 118.74 101.05 118.74 98.53 116.21 98.53 116.21 101.05 111.16 101.05 111.16 98.53 108.63 98.53 108.63 96 103.58 96 103.58 98.53 101.05 98.53 101.05 90.95 98.53 90.95 98.53 88.42 96 88.42 96 85.89 90.95 85.89 90.95 80.84 93.47 80.84 93.47 78.32 90.95 78.32 90.95 80.84 88.42 80.84 88.42 75.79 96 75.79 96 78.32 103.58 78.32 103.58 73.26 106.11 73.26 106.11 68.21 103.58 68.21 103.58 65.68 106.11 65.68 106.11 58.1 108.63 58.1 108.63 60.63 111.16 60.63 111.16 58.1 113.68 58.1 113.68 55.58 111.16 55.58 111.16 58.1 108.63 58.1 108.63 55.58 101.05 55.58 101.05 60.63 103.58 60.63 103.58 63.16 101.05 63.16 101.05 73.26 98.53 73.26 98.53 70.74 96 70.74 96 73.26 93.47 73.26 93.47 68.21 90.95 68.21 90.95 63.16 88.42 63.16 88.42 60.63 83.37 60.63 83.37 58.1 80.84 58.1 80.84 60.63 78.32 60.63 78.32 68.21 90.95 68.21 90.95 73.26 88.42 73.26 88.42 70.74 83.37 70.74 83.37 73.26 78.32 73.26 78.32 78.32 80.84 78.32 80.84 80.84 75.79 80.84 75.79 78.32 73.26 78.32 73.26 80.84 70.74 80.84 70.74 78.32 65.68 78.32 65.68 73.26 60.63 73.26 60.63 70.74 65.68 70.74 65.68 68.21 60.63 68.21 60.63 65.68 63.16 65.68 63.16 63.16 65.68 63.16 65.68 65.68 68.21 65.68 68.21 63.16 70.74 63.16 70.74 65.68 73.26 65.68 73.26 63.16 75.79 63.16 75.79 58.1 70.74 58.1 70.74 60.63 68.21 60.63 68.21 58.1 65.68 58.1 65.68 55.58 73.26 55.58 73.26 53.05 70.74 53.05 70.74 50.53 75.79 50.53 75.79 48 78.32 48 78.32 55.58 88.42 55.58 88.42 58.1 93.47 58.1 93.47 63.16 96 63.16 96 65.68 98.53 65.68 98.53 63.16 96 63.16 96 60.63 98.53 60.63 98.53 58.1 93.47 58.1 93.47 55.58 96 55.58 96 53.05 93.47 53.05 93.47 50.53 98.53 50.53 98.53 53.05 108.63 53.05 108.63 50.53 98.53 50.53 98.53 48 101.05 48 101.05 45.47 103.58 45.47 103.58 42.95 106.11 42.95 106.11 37.9 108.63 37.9 108.63 35.37"/><rect x="116.21" y="35.37" width="2.53" height="2.53"/><polygon points="133.9 35.37 136.42 35.37 136.42 37.9 144 37.9 144 40.42 141.47 40.42 141.47 42.95 138.95 42.95 138.95 40.42 133.9 40.42 133.9 35.37"/><rect x="5.05" y="37.89" width="2.53" height="2.53"/><polygon points="60.63 37.9 63.16 37.9 63.16 40.42 65.68 40.42 65.68 42.95 70.74 42.95 70.74 45.47 63.16 45.47 63.16 48 53.05 48 53.05 45.47 50.53 45.47 50.53 42.95 55.58 42.95 55.58 45.47 60.63 45.47 60.63 37.9"/><polygon points="78.32 37.9 80.84 37.9 80.84 40.42 83.37 40.42 83.37 42.95 80.84 42.95 80.84 45.47 78.32 45.47 78.32 42.95 75.79 42.95 75.79 40.42 78.32 40.42 78.32 37.9" fill="#fff"/><polygon points="93.47 37.9 96 37.9 96 40.42 98.53 40.42 98.53 42.95 96 42.95 96 45.47 93.47 45.47 93.47 42.95 90.95 42.95 90.95 45.47 88.42 45.47 88.42 40.42 93.47 40.42 93.47 37.9"/><rect x="111.16" y="37.89" width="2.53" height="5.05" fill="#fff"/><rect x="121.26" y="37.89" width="2.53" height="2.53"/><polygon points="0 40.42 2.53 40.42 2.53 42.95 10.11 42.95 10.11 45.47 7.58 45.47 7.58 48 15.16 48 15.16 50.53 10.11 50.53 10.11 55.58 7.58 55.58 7.58 50.53 2.53 50.53 2.53 53.05 0 53.05 0 48 2.53 48 2.53 45.47 0 45.47 0 40.42"/><rect x="12.63" y="40.42" width="5.05" height="2.53"/><polygon points="40.42 40.42 42.95 40.42 42.95 45.47 45.47 45.47 45.47 48 42.95 48 42.95 50.53 53.05 50.53 53.05 53.05 48 53.05 48 55.58 45.47 55.58 45.47 58.1 48 58.1 48 60.63 53.05 60.63 53.05 68.21 48 68.21 48 65.68 50.53 65.68 50.53 63.16 42.95 63.16 42.95 60.63 40.42 60.63 40.42 40.42"/><rect x="73.26" y="40.42" width="2.53" height="2.53"/><rect x="85.89" y="40.42" width="2.53" height="5.05" fill="#fff"/><rect x="141.47" y="40.42" width="2.53" height="2.53" fill="#fff"/><rect x="48" y="42.95" width="2.53" height="2.53" fill="#fff"/><rect x="75.79" y="42.95" width="2.53" height="2.53"/><rect x="90.95" y="42.95" width="2.53" height="2.53" fill="#fff"/><polygon points="108.63 42.95 111.16 42.95 111.16 45.47 113.68 45.47 113.68 48 106.11 48 106.11 45.47 108.63 45.47 108.63 42.95" fill="#fff"/><rect x="116.21" y="42.95" width="2.53" height="5.05" fill="#fff"/><rect x="131.37" y="42.95" width="2.53" height="7.58"/><rect x="138.95" y="42.95" width="2.53" height="5.05" fill="#fff"/><rect y="45.47" width="2.53" height="2.53" fill="#fff"/><rect x="15.16" y="45.47" width="2.53" height="2.53"/><polygon points="25.26 45.47 30.32 45.47 30.32 53.05 27.79 53.05 27.79 48 25.26 48 25.26 45.47"/><polygon points="32.84 45.47 37.9 45.47 37.9 53.05 35.37 53.05 35.37 55.58 30.32 55.58 30.32 53.05 32.84 53.05 32.84 50.53 35.37 50.53 35.37 48 32.84 48 32.84 45.47"/><rect x="48" y="45.47" width="2.53" height="2.53"/><rect x="78.32" y="45.47" width="2.53" height="2.53"/><polygon points="80.84 45.47 85.89 45.47 85.89 50.53 83.37 50.53 83.37 48 80.84 48 80.84 45.47" fill="#fff"/><polygon points="85.89 45.47 88.42 45.47 88.42 53.05 80.84 53.05 80.84 48 83.37 48 83.37 50.53 85.89 50.53 85.89 45.47"/><polygon points="88.42 45.47 90.95 45.47 90.95 50.53 93.47 50.53 93.47 53.05 96 53.05 96 55.58 93.47 55.58 93.47 58.1 88.42 58.1 88.42 55.58 78.32 55.58 78.32 48 80.84 48 80.84 53.05 88.42 53.05 88.42 45.47" fill="#fff"/><rect x="90.95" y="45.47" width="2.53" height="5.05"/><polygon points="121.26 45.47 123.79 45.47 123.79 50.53 126.32 50.53 126.32 53.05 121.26 53.05 121.26 55.58 118.74 55.58 118.74 50.53 121.26 50.53 121.26 45.47" fill="#fff"/><rect x="20.21" y="48" width="5.05" height="2.53"/><rect x="68.21" y="48" width="2.53" height="2.53"/><polygon points="2.53 50.53 7.58 50.53 7.58 55.58 5.05 55.58 5.05 53.05 2.53 53.05 2.53 50.53" fill="#fff"/><polygon points="10.11 50.53 15.16 50.53 15.16 53.05 12.63 53.05 12.63 55.58 10.11 55.58 10.11 50.53" fill="#fff"/><rect x="15.16" y="50.53" width="2.53" height="2.53"/><rect x="98.53" y="50.53" width="10.11" height="2.53" fill="#fff"/><rect x="111.16" y="50.53" width="5.05" height="2.53" fill="#fff"/><polygon points="141.47 50.53 144 50.53 144 60.63 138.95 60.63 138.95 58.1 141.47 58.1 141.47 50.53" fill="#fff"/><rect y="53.05" width="2.53" height="10.11" fill="#fff"/><polygon points="2.53 53.05 5.05 53.05 5.05 55.58 7.58 55.58 7.58 58.1 5.05 58.1 5.05 63.16 15.16 63.16 15.16 65.68 17.68 65.68 17.68 63.16 15.16 63.16 15.16 60.63 20.21 60.63 20.21 65.68 22.74 65.68 22.74 73.26 27.79 73.26 27.79 65.68 30.32 65.68 30.32 68.21 32.84 68.21 32.84 70.74 35.37 70.74 35.37 68.21 37.9 68.21 37.9 70.74 40.42 70.74 40.42 75.79 37.9 75.79 37.9 73.26 30.32 73.26 30.32 78.32 27.79 78.32 27.79 75.79 22.74 75.79 22.74 80.84 20.21 80.84 20.21 85.89 17.68 85.89 17.68 83.37 10.11 83.37 10.11 85.89 7.58 85.89 7.58 80.84 5.05 80.84 5.05 78.32 2.53 78.32 2.53 73.26 5.05 73.26 5.05 68.21 7.58 68.21 7.58 70.74 10.11 70.74 10.11 68.21 7.58 68.21 7.58 65.68 5.05 65.68 5.05 68.21 0 68.21 0 63.16 2.53 63.16 2.53 53.05"/><polygon points="12.63 53.05 15.16 53.05 15.16 55.58 20.21 55.58 20.21 58.1 15.16 58.1 15.16 60.63 7.58 60.63 7.58 58.1 10.11 58.1 10.11 55.58 12.63 55.58 12.63 53.05"/><polygon points="20.21 53.05 25.26 53.05 25.26 60.63 22.74 60.63 22.74 55.58 20.21 55.58 20.21 53.05"/><rect x="48" y="53.05" width="5.05" height="2.53" fill="#fff"/><polygon points="53.05 53.05 60.63 53.05 60.63 60.63 63.16 60.63 63.16 63.16 58.1 63.16 58.1 73.26 60.63 73.26 60.63 78.32 58.1 78.32 58.1 75.79 53.05 75.79 53.05 83.37 55.58 83.37 55.58 78.32 58.1 78.32 58.1 80.84 60.63 80.84 60.63 83.37 58.1 83.37 58.1 85.89 60.63 85.89 60.63 88.42 55.58 88.42 55.58 93.47 53.05 93.47 53.05 96 48 96 48 93.47 45.47 93.47 45.47 90.95 50.53 90.95 50.53 88.42 53.05 88.42 53.05 85.89 50.53 85.89 50.53 88.42 42.95 88.42 42.95 85.89 40.42 85.89 40.42 83.37 42.95 83.37 42.95 80.84 40.42 80.84 40.42 83.37 37.9 83.37 37.9 80.84 32.84 80.84 32.84 83.37 30.32 83.37 30.32 85.89 35.37 85.89 35.37 83.37 37.9 83.37 37.9 85.89 40.42 85.89 40.42 88.42 32.84 88.42 32.84 90.95 25.26 90.95 25.26 88.42 27.79 88.42 27.79 85.89 22.74 85.89 22.74 83.37 25.26 83.37 25.26 80.84 30.32 80.84 30.32 78.32 50.53 78.32 50.53 73.26 53.05 73.26 53.05 70.74 55.58 70.74 55.58 60.63 58.1 60.63 58.1 58.1 55.58 58.1 55.58 55.58 53.05 55.58 53.05 53.05"/><rect x="7.58" y="55.58" width="2.53" height="2.53" fill="#fff"/><rect x="45.47" y="55.58" width="2.53" height="2.53" fill="#fff"/><rect x="48" y="55.58" width="5.05" height="2.53"/><polygon points="53.05 55.58 55.58 55.58 55.58 58.1 58.1 58.1 58.1 60.63 55.58 60.63 55.58 70.74 53.05 70.74 53.05 73.26 50.53 73.26 50.53 70.74 48 70.74 48 73.26 50.53 73.26 50.53 78.32 30.32 78.32 30.32 73.26 37.9 73.26 37.9 75.79 40.42 75.79 40.42 70.74 37.9 70.74 37.9 68.21 35.37 68.21 35.37 70.74 32.84 70.74 32.84 68.21 30.32 68.21 30.32 65.68 32.84 65.68 32.84 63.16 35.37 63.16 35.37 65.68 40.42 65.68 40.42 68.21 42.95 68.21 42.95 65.68 40.42 65.68 40.42 60.63 42.95 60.63 42.95 63.16 50.53 63.16 50.53 65.68 48 65.68 48 68.21 53.05 68.21 53.05 60.63 48 60.63 48 58.1 53.05 58.1 53.05 55.58" fill="#fff"/><polygon points="101.05 55.58 108.63 55.58 108.63 58.1 106.11 58.1 106.11 65.68 103.58 65.68 103.58 68.21 106.11 68.21 106.11 73.26 103.58 73.26 103.58 78.32 96 78.32 96 75.79 88.42 75.79 88.42 80.84 90.95 80.84 90.95 85.89 96 85.89 96 88.42 90.95 88.42 90.95 90.95 83.37 90.95 83.37 88.42 78.32 88.42 78.32 85.89 85.89 85.89 85.89 75.79 80.84 75.79 80.84 78.32 78.32 78.32 78.32 73.26 83.37 73.26 83.37 70.74 88.42 70.74 88.42 73.26 90.95 73.26 90.95 68.21 93.47 68.21 93.47 73.26 96 73.26 96 70.74 98.53 70.74 98.53 73.26 101.05 73.26 101.05 63.16 103.58 63.16 103.58 60.63 101.05 60.63 101.05 55.58" fill="#fff"/><rect x="111.16" y="55.58" width="2.53" height="2.53" fill="#fff"/><rect x="121.26" y="55.58" width="2.53" height="2.53" fill="#fff"/><polygon points="5.05 58.1 7.58 58.1 7.58 60.63 15.16 60.63 15.16 63.16 5.05 63.16 5.05 58.1" fill="#fff"/><polygon points="30.32 58.1 35.37 58.1 35.37 63.16 32.84 63.16 32.84 60.63 30.32 60.63 30.32 58.1"/><polygon points="80.84 58.1 83.37 58.1 83.37 60.63 88.42 60.63 88.42 63.16 83.37 63.16 83.37 65.68 88.42 65.68 88.42 63.16 90.95 63.16 90.95 68.21 78.32 68.21 78.32 60.63 80.84 60.63 80.84 58.1" fill="#fff"/><polygon points="93.47 58.1 98.53 58.1 98.53 60.63 96 60.63 96 63.16 93.47 63.16 93.47 58.1" fill="#fff"/><rect x="108.63" y="58.11" width="2.53" height="2.53" fill="#fff"/><polygon points="116.21 58.1 121.26 58.1 121.26 60.63 118.74 60.63 118.74 63.16 121.26 63.16 121.26 65.68 116.21 65.68 116.21 63.16 113.68 63.16 113.68 60.63 116.21 60.63 116.21 58.1" fill="#fff"/><polygon points="126.32 58.1 128.84 58.1 128.84 60.63 131.37 60.63 131.37 65.68 126.32 65.68 126.32 58.1" fill="#fff"/><polygon points="37.9 60.63 40.42 60.63 40.42 65.68 35.37 65.68 35.37 63.16 37.9 63.16 37.9 60.63"/><rect x="118.74" y="60.63" width="2.53" height="2.53"/><rect x="121.26" y="60.63" width="2.53" height="2.53" fill="#fff"/><rect x="15.16" y="63.16" width="2.53" height="2.53" fill="#fff"/><rect x="22.74" y="63.16" width="5.05" height="2.53"/><rect x="30.32" y="63.16" width="2.53" height="2.53"/><polygon points="58.1 63.16 63.16 63.16 63.16 65.68 60.63 65.68 60.63 68.21 65.68 68.21 65.68 70.74 60.63 70.74 60.63 73.26 58.1 73.26 58.1 63.16" fill="#fff"/><rect x="83.37" y="63.16" width="5.05" height="2.53"/><rect x="96" y="63.16" width="2.53" height="2.53" fill="#fff"/><polygon points="108.63 63.16 111.16 63.16 111.16 65.68 113.68 65.68 113.68 68.21 121.26 68.21 121.26 70.74 118.74 70.74 118.74 73.26 121.26 73.26 121.26 78.32 116.21 78.32 116.21 73.26 113.68 73.26 113.68 75.79 111.16 75.79 111.16 68.21 108.63 68.21 108.63 63.16" fill="#fff"/><rect x="133.89" y="63.16" width="2.53" height="5.05" fill="#fff"/><rect x="141.47" y="63.16" width="2.53" height="7.58" fill="#fff"/><rect x="5.05" y="65.68" width="2.53" height="2.53" fill="#fff"/><rect x="22.74" y="65.68" width="5.05" height="7.58" fill="#fff"/><rect x="40.42" y="65.68" width="2.53" height="2.53"/><polygon points="0 68.21 5.05 68.21 5.05 73.26 2.53 73.26 2.53 70.74 0 70.74 0 68.21" fill="#fff"/><rect x="7.58" y="68.21" width="2.53" height="2.53" fill="#fff"/><rect x="12.63" y="68.21" width="7.58" height="7.58" fill="#fff"/><rect x="68.21" y="68.21" width="7.58" height="7.58" fill="#fff"/><rect x="123.79" y="68.21" width="7.58" height="7.58" fill="#fff"/><rect y="70.74" width="2.53" height="2.53"/><rect x="15.16" y="70.74" width="2.53" height="2.53"/><rect x="42.95" y="70.74" width="2.53" height="5.05"/><rect x="48" y="70.74" width="2.53" height="2.53"/><rect x="70.74" y="70.74" width="2.53" height="2.53"/><rect x="126.32" y="70.74" width="2.53" height="2.53"/><polygon points="133.9 70.74 138.95 70.74 138.95 73.26 141.47 73.26 141.47 80.84 138.95 80.84 138.95 78.32 133.9 78.32 133.9 75.79 136.42 75.79 136.42 73.26 133.9 73.26 133.9 70.74" fill="#fff"/><polygon points="0 73.26 2.53 73.26 2.53 78.32 5.05 78.32 5.05 80.84 7.58 80.84 7.58 85.89 10.11 85.89 10.11 88.42 17.68 88.42 17.68 90.95 12.63 90.95 12.63 93.47 10.11 93.47 10.11 90.95 7.58 90.95 7.58 88.42 5.05 88.42 5.05 83.37 2.53 83.37 2.53 85.89 0 85.89 0 73.26" fill="#fff"/><rect x="60.63" y="73.26" width="5.05" height="5.05" fill="#fff"/><polygon points="113.68 73.26 116.21 73.26 116.21 78.32 113.68 78.32 113.68 80.84 111.16 80.84 111.16 75.79 113.68 75.79 113.68 73.26"/><rect x="7.58" y="75.79" width="2.53" height="2.53" fill="#fff"/><polygon points="22.74 75.79 27.79 75.79 27.79 78.32 30.32 78.32 30.32 80.84 25.26 80.84 25.26 83.37 22.74 83.37 22.74 85.89 20.21 85.89 20.21 80.84 22.74 80.84 22.74 75.79" fill="#fff"/><polygon points="53.05 75.79 58.1 75.79 58.1 78.32 55.58 78.32 55.58 83.37 53.05 83.37 53.05 75.79" fill="#fff"/><polygon points="80.84 75.79 85.89 75.79 85.89 85.89 78.32 85.89 78.32 83.37 80.84 83.37 80.84 80.84 83.37 80.84 83.37 78.32 80.84 78.32 80.84 75.79"/><polygon points="106.11 75.79 111.16 75.79 111.16 80.84 108.63 80.84 108.63 83.37 106.11 83.37 106.11 75.79" fill="#fff"/><rect x="10.11" y="78.32" width="7.58" height="2.53" fill="#fff"/><rect x="58.11" y="78.32" width="2.53" height="2.53" fill="#fff"/><polygon points="60.63 78.32 65.68 78.32 65.68 83.37 63.16 83.37 63.16 80.84 60.63 80.84 60.63 78.32"/><polygon points="65.68 78.32 70.74 78.32 70.74 80.84 68.21 80.84 68.21 83.37 65.68 83.37 65.68 78.32" fill="#fff"/><rect x="73.26" y="78.32" width="2.53" height="2.53" fill="#fff"/><rect x="80.84" y="78.32" width="2.53" height="2.53" fill="#fff"/><rect x="90.95" y="78.32" width="2.53" height="2.53" fill="#fff"/><polygon points="113.68 78.32 116.21 78.32 116.21 80.84 121.26 80.84 121.26 88.42 118.74 88.42 118.74 83.37 113.68 83.37 113.68 85.89 111.16 85.89 111.16 80.84 113.68 80.84 113.68 78.32" fill="#fff"/><rect x="116.21" y="78.32" width="5.05" height="2.53"/><polygon points="121.26 78.32 126.32 78.32 126.32 80.84 128.84 80.84 128.84 83.37 123.79 83.37 123.79 80.84 121.26 80.84 121.26 78.32" fill="#fff"/><rect x="128.84" y="78.32" width="5.05" height="2.53" fill="#fff"/><rect x="133.89" y="78.32" width="5.05" height="2.53"/><polygon points="32.84 80.84 37.9 80.84 37.9 83.37 35.37 83.37 35.37 85.89 30.32 85.89 30.32 83.37 32.84 83.37 32.84 80.84" fill="#fff"/><rect x="40.42" y="80.84" width="2.53" height="2.53" fill="#fff"/><rect x="48" y="80.84" width="2.53" height="2.53" fill="#fff"/><rect x="60.63" y="80.84" width="2.53" height="2.53" fill="#fff"/><rect x="68.21" y="80.84" width="2.53" height="2.53"/><rect x="70.74" y="80.84" width="2.53" height="2.53" fill="#fff"/><polygon points="73.26 80.84 75.79 80.84 75.79 85.89 73.26 85.89 73.26 90.95 70.74 90.95 70.74 88.42 68.21 88.42 68.21 85.89 70.74 85.89 70.74 83.37 73.26 83.37 73.26 80.84"/><polygon points="75.79 80.84 80.84 80.84 80.84 83.37 78.32 83.37 78.32 85.89 75.79 85.89 75.79 80.84" fill="#fff"/><polygon points="98.53 80.84 103.58 80.84 103.58 88.42 101.05 88.42 101.05 85.89 98.53 85.89 98.53 80.84" fill="#fff"/><polygon points="121.26 80.84 123.79 80.84 123.79 83.37 128.84 83.37 128.84 80.84 133.9 80.84 133.9 83.37 136.42 83.37 136.42 88.42 138.95 88.42 138.95 90.95 136.42 90.95 136.42 93.47 138.95 93.47 138.95 101.05 136.42 101.05 136.42 96 133.9 96 133.9 90.95 128.84 90.95 128.84 93.47 118.74 93.47 118.74 88.42 121.26 88.42 121.26 90.95 123.79 90.95 123.79 88.42 121.26 88.42 121.26 80.84"/><polygon points="133.9 80.84 138.95 80.84 138.95 88.42 136.42 88.42 136.42 83.37 133.9 83.37 133.9 80.84" fill="#fff"/><polygon points="2.53 83.37 5.05 83.37 5.05 88.42 7.58 88.42 7.58 90.95 0 90.95 0 85.89 2.53 85.89 2.53 83.37"/><rect x="10.11" y="83.37" width="7.58" height="2.53" fill="#fff"/><rect x="37.89" y="83.37" width="2.53" height="2.53" fill="#fff"/><rect x="45.47" y="83.37" width="2.53" height="2.53" fill="#fff"/><rect x="58.11" y="83.37" width="2.53" height="2.53" fill="#fff"/><rect x="60.63" y="83.37" width="2.53" height="2.53"/><polygon points="63.16 83.37 65.68 83.37 65.68 85.89 68.21 85.89 68.21 88.42 70.74 88.42 70.74 90.95 73.26 90.95 73.26 93.47 75.79 93.47 75.79 96 70.74 96 70.74 98.53 68.21 98.53 68.21 96 65.68 96 65.68 101.05 60.63 101.05 60.63 98.53 58.1 98.53 58.1 101.05 55.58 101.05 55.58 96 53.05 96 53.05 93.47 55.58 93.47 55.58 88.42 60.63 88.42 60.63 85.89 63.16 85.89 63.16 83.37" fill="#fff"/><rect x="65.68" y="83.37" width="2.53" height="2.53"/><rect x="68.21" y="83.37" width="2.53" height="2.53" fill="#fff"/><rect x="141.47" y="83.37" width="2.53" height="5.05" fill="#fff"/><rect x="10.11" y="85.89" width="7.58" height="2.53"/><rect x="17.68" y="85.89" width="2.53" height="2.53" fill="#fff"/><rect x="20.21" y="85.89" width="2.53" height="2.53"/><polygon points="22.74 85.89 27.79 85.89 27.79 88.42 25.26 88.42 25.26 90.95 32.84 90.95 32.84 88.42 40.42 88.42 40.42 93.47 37.9 93.47 37.9 96 40.42 96 40.42 98.53 37.9 98.53 37.9 101.05 35.37 101.05 35.37 103.58 37.9 103.58 37.9 106.11 35.37 106.11 35.37 111.16 32.84 111.16 32.84 113.68 35.37 113.68 35.37 111.16 37.9 111.16 37.9 113.68 40.42 113.68 40.42 116.21 37.9 116.21 37.9 118.74 48 118.74 48 121.26 45.47 121.26 45.47 123.79 42.95 123.79 42.95 128.84 37.9 128.84 37.9 123.79 35.37 123.79 35.37 128.84 32.84 128.84 32.84 126.32 30.32 126.32 30.32 123.79 32.84 123.79 32.84 116.21 30.32 116.21 30.32 113.68 27.79 113.68 27.79 111.16 22.74 111.16 22.74 108.63 32.84 108.63 32.84 106.11 30.32 106.11 30.32 98.53 27.79 98.53 27.79 96 30.32 96 30.32 93.47 27.79 93.47 27.79 96 25.26 96 25.26 93.47 20.21 93.47 20.21 98.53 17.68 98.53 17.68 96 12.63 96 12.63 93.47 17.68 93.47 17.68 90.95 20.21 90.95 20.21 88.42 22.74 88.42 22.74 85.89" fill="#fff"/><rect x="40.42" y="85.89" width="2.53" height="2.53" fill="#fff"/><rect x="50.53" y="85.89" width="2.53" height="2.53" fill="#fff"/><rect x="73.26" y="85.89" width="2.53" height="5.05" fill="#fff"/><polygon points="75.79 85.89 78.32 85.89 78.32 88.42 83.37 88.42 83.37 90.95 78.32 90.95 78.32 96 75.79 96 75.79 93.47 73.26 93.47 73.26 90.95 75.79 90.95 75.79 85.89"/><rect x="106.11" y="85.89" width="2.53" height="2.53" fill="#fff"/><rect x="126.32" y="85.89" width="5.05" height="2.53" fill="#fff"/><rect x="17.68" y="88.42" width="2.53" height="2.53"/><polygon points="40.42 88.42 42.95 88.42 42.95 96 48 96 48 101.05 45.47 101.05 45.47 98.53 42.95 98.53 42.95 101.05 37.9 101.05 37.9 98.53 40.42 98.53 40.42 96 37.9 96 37.9 93.47 40.42 93.47 40.42 88.42"/><polygon points="42.95 88.42 50.53 88.42 50.53 90.95 45.47 90.95 45.47 93.47 48 93.47 48 96 42.95 96 42.95 88.42" fill="#fff"/><rect x="63.16" y="88.42" width="2.53" height="2.53"/><rect x="90.95" y="88.42" width="5.05" height="2.53"/><rect x="96" y="88.42" width="2.53" height="2.53" fill="#fff"/><rect x="103.58" y="88.42" width="2.53" height="5.05" fill="#fff"/><rect x="108.63" y="88.42" width="2.53" height="2.53" fill="#fff"/><polygon points="113.68 88.42 118.74 88.42 118.74 93.47 128.84 93.47 128.84 96 131.37 96 131.37 93.47 128.84 93.47 128.84 90.95 133.9 90.95 133.9 96 136.42 96 136.42 101.05 131.37 101.05 131.37 98.53 128.84 98.53 128.84 101.05 131.37 101.05 131.37 103.58 128.84 103.58 128.84 106.11 126.32 106.11 126.32 108.63 123.79 108.63 123.79 106.11 118.74 106.11 118.74 108.63 116.21 108.63 116.21 111.16 113.68 111.16 113.68 106.11 111.16 106.11 111.16 103.58 106.11 103.58 106.11 101.05 108.63 101.05 108.63 98.53 111.16 98.53 111.16 101.05 116.21 101.05 116.21 98.53 118.74 98.53 118.74 101.05 121.26 101.05 121.26 103.58 126.32 103.58 126.32 101.05 121.26 101.05 121.26 96 116.21 96 116.21 90.95 113.68 90.95 113.68 88.42" fill="#fff"/><rect x="121.26" y="88.42" width="2.53" height="2.53" fill="#fff"/><polygon points="138.95 88.42 141.47 88.42 141.47 90.95 144 90.95 144 93.47 141.47 93.47 141.47 96 144 96 144 98.53 141.47 98.53 141.47 101.05 138.95 101.05 138.95 93.47 136.42 93.47 136.42 90.95 138.95 90.95 138.95 88.42" fill="#fff"/><rect x="141.47" y="88.42" width="2.53" height="2.53"/><polygon points="0 90.95 7.58 90.95 7.58 93.47 10.11 93.47 10.11 98.53 7.58 98.53 7.58 96 5.05 96 5.05 93.47 2.53 93.47 2.53 96 0 96 0 90.95" fill="#fff"/><rect x="7.58" y="90.95" width="2.53" height="2.53"/><rect x="12.63" y="90.95" width="5.05" height="2.53"/><polygon points="58.1 90.95 60.63 90.95 60.63 93.47 63.16 93.47 63.16 96 58.1 96 58.1 90.95"/><rect x="78.32" y="90.95" width="5.05" height="5.05" fill="#fff"/><polygon points="83.37 90.95 90.95 90.95 90.95 93.47 85.89 93.47 85.89 96 83.37 96 83.37 90.95"/><polygon points="90.95 90.95 96 90.95 96 93.47 93.47 93.47 93.47 98.53 90.95 98.53 90.95 96 85.89 96 85.89 93.47 90.95 93.47 90.95 90.95" fill="#fff"/><rect x="96" y="90.95" width="2.53" height="2.53"/><polygon points="98.53 90.95 101.05 90.95 101.05 98.53 103.58 98.53 103.58 96 108.63 96 108.63 98.53 106.11 98.53 106.11 101.05 103.58 101.05 103.58 106.11 101.05 106.11 101.05 103.58 98.53 103.58 98.53 106.11 96 106.11 96 108.63 98.53 108.63 98.53 106.11 101.05 106.11 101.05 111.16 103.58 111.16 103.58 113.68 98.53 113.68 98.53 111.16 93.47 111.16 93.47 108.63 90.95 108.63 90.95 103.58 85.89 103.58 85.89 108.63 90.95 108.63 90.95 111.16 88.42 111.16 88.42 113.68 85.89 113.68 85.89 111.16 83.37 111.16 83.37 113.68 80.84 113.68 80.84 108.63 83.37 108.63 83.37 103.58 75.79 103.58 75.79 101.05 85.89 101.05 85.89 98.53 88.42 98.53 88.42 101.05 93.47 101.05 93.47 103.58 96 103.58 96 101.05 98.53 101.05 98.53 96 96 96 96 93.47 98.53 93.47 98.53 90.95" fill="#fff"/><polygon points="2.53 93.47 5.05 93.47 5.05 96 7.58 96 7.58 98.53 10.11 98.53 10.11 108.63 12.63 108.63 12.63 113.68 15.16 113.68 15.16 116.21 17.68 116.21 17.68 118.74 12.63 118.74 12.63 116.21 7.58 116.21 7.58 113.68 10.11 113.68 10.11 111.16 0 111.16 0 108.63 2.53 108.63 2.53 106.11 0 106.11 0 103.58 2.53 103.58 2.53 101.05 0 101.05 0 96 2.53 96 2.53 93.47"/><polygon points="10.11 93.47 12.63 93.47 12.63 96 17.68 96 17.68 98.53 10.11 98.53 10.11 93.47"/><polygon points="20.21 93.47 25.26 93.47 25.26 96 22.74 96 22.74 98.53 20.21 98.53 20.21 93.47"/><rect x="27.79" y="93.47" width="2.53" height="2.53"/><polygon points="93.47 93.47 96 93.47 96 96 98.53 96 98.53 101.05 96 101.05 96 98.53 93.47 98.53 93.47 93.47"/><rect x="128.84" y="93.47" width="2.53" height="2.53"/><rect x="141.47" y="93.47" width="2.53" height="2.53"/><rect x="22.74" y="96" width="2.53" height="2.53" fill="#fff"/><rect x="25.26" y="96" width="2.53" height="2.53"/><rect x="32.84" y="96" width="2.53" height="2.53"/><polygon points="48 96 53.05 96 53.05 101.05 50.53 101.05 50.53 108.63 42.95 108.63 42.95 106.11 48 106.11 48 103.58 42.95 103.58 42.95 106.11 40.42 106.11 40.42 103.58 37.9 103.58 37.9 101.05 42.95 101.05 42.95 98.53 45.47 98.53 45.47 101.05 48 101.05 48 96" fill="#fff"/><rect x="53.05" y="96" width="2.53" height="5.05"/><polygon points="65.68 96 68.21 96 68.21 98.53 70.74 98.53 70.74 101.05 68.21 101.05 68.21 103.58 63.16 103.58 63.16 108.63 60.63 108.63 60.63 111.16 58.1 111.16 58.1 113.68 70.74 113.68 70.74 111.16 78.32 111.16 78.32 106.11 73.26 106.11 73.26 103.58 70.74 103.58 70.74 101.05 73.26 101.05 73.26 98.53 70.74 98.53 70.74 96 75.79 96 75.79 98.53 78.32 98.53 78.32 96 83.37 96 83.37 98.53 85.89 98.53 85.89 101.05 75.79 101.05 75.79 103.58 83.37 103.58 83.37 108.63 80.84 108.63 80.84 113.68 83.37 113.68 83.37 111.16 85.89 111.16 85.89 113.68 88.42 113.68 88.42 116.21 90.95 116.21 90.95 123.79 85.89 123.79 85.89 121.26 88.42 121.26 88.42 118.74 85.89 118.74 85.89 116.21 83.37 116.21 83.37 118.74 80.84 118.74 80.84 116.21 78.32 116.21 78.32 113.68 75.79 113.68 75.79 116.21 73.26 116.21 73.26 118.74 70.74 118.74 70.74 121.26 73.26 121.26 73.26 118.74 75.79 118.74 75.79 121.26 78.32 121.26 78.32 118.74 80.84 118.74 80.84 121.26 83.37 121.26 83.37 123.79 85.89 123.79 85.89 126.32 80.84 126.32 80.84 128.84 78.32 128.84 78.32 131.37 80.84 131.37 80.84 136.42 78.32 136.42 78.32 141.47 75.79 141.47 75.79 136.42 70.74 136.42 70.74 133.9 65.68 133.9 65.68 136.42 63.16 136.42 63.16 138.95 65.68 138.95 65.68 141.47 60.63 141.47 60.63 144 55.58 144 55.58 133.9 58.1 133.9 58.1 138.95 60.63 138.95 60.63 133.9 63.16 133.9 63.16 131.37 65.68 131.37 65.68 126.32 63.16 126.32 63.16 123.79 60.63 123.79 60.63 118.74 63.16 118.74 63.16 121.26 68.21 121.26 68.21 116.21 60.63 116.21 60.63 118.74 58.1 118.74 58.1 116.21 55.58 116.21 55.58 113.68 53.05 113.68 53.05 116.21 50.53 116.21 50.53 121.26 53.05 121.26 53.05 123.79 50.53 123.79 50.53 128.84 42.95 128.84 42.95 123.79 45.47 123.79 45.47 121.26 48 121.26 48 118.74 37.9 118.74 37.9 116.21 40.42 116.21 40.42 113.68 37.9 113.68 37.9 111.16 40.42 111.16 40.42 108.63 37.9 108.63 37.9 111.16 35.37 111.16 35.37 106.11 37.9 106.11 37.9 103.58 40.42 103.58 40.42 106.11 42.95 106.11 42.95 108.63 50.53 108.63 50.53 111.16 53.05 111.16 53.05 108.63 50.53 108.63 50.53 101.05 53.05 101.05 53.05 106.11 55.58 106.11 55.58 108.63 58.1 108.63 58.1 106.11 60.63 106.11 60.63 103.58 55.58 103.58 55.58 101.05 58.1 101.05 58.1 98.53 60.63 98.53 60.63 101.05 65.68 101.05 65.68 96"/><rect x="75.79" y="96" width="2.53" height="2.53" fill="#fff"/><rect x="83.37" y="96" width="2.53" height="2.53" fill="#fff"/><polygon points="85.89 96 90.95 96 90.95 98.53 93.47 98.53 93.47 101.05 88.42 101.05 88.42 98.53 85.89 98.53 85.89 96"/><rect x="123.79" y="96" width="2.53" height="2.53"/><polygon points="10.11 98.53 17.68 98.53 17.68 101.05 15.16 101.05 15.16 103.58 12.63 103.58 12.63 108.63 10.11 108.63 10.11 98.53" fill="#fff"/><polygon points="17.68 98.53 20.21 98.53 20.21 101.05 22.74 101.05 22.74 103.58 15.16 103.58 15.16 101.05 17.68 101.05 17.68 98.53"/><rect x="20.21" y="98.53" width="2.53" height="2.53" fill="#fff"/><rect x="22.74" y="98.53" width="2.53" height="2.53"/><polygon points="25.26 98.53 27.79 98.53 27.79 103.58 22.74 103.58 22.74 101.05 25.26 101.05 25.26 98.53" fill="#fff"/><polygon points="27.79 98.53 30.32 98.53 30.32 106.11 32.84 106.11 32.84 108.63 22.74 108.63 22.74 111.16 27.79 111.16 27.79 113.68 22.74 113.68 22.74 116.21 20.21 116.21 20.21 108.63 12.63 108.63 12.63 103.58 15.16 103.58 15.16 106.11 22.74 106.11 22.74 103.58 27.79 103.58 27.79 98.53"/><rect x="70.74" y="98.53" width="2.53" height="2.53" fill="#fff"/><rect x="93.47" y="98.53" width="2.53" height="2.53" fill="#fff"/><rect x="106.11" y="98.53" width="2.53" height="2.53"/><rect x="128.84" y="98.53" width="2.53" height="2.53"/><rect x="141.47" y="98.53" width="2.53" height="2.53"/><rect y="101.05" width="2.53" height="2.53" fill="#fff"/><rect x="35.37" y="101.05" width="2.53" height="2.53"/><polygon points="53.05 101.05 55.58 101.05 55.58 103.58 60.63 103.58 60.63 106.11 58.1 106.11 58.1 108.63 55.58 108.63 55.58 106.11 53.05 106.11 53.05 101.05" fill="#fff"/><rect x="68.21" y="101.05" width="2.53" height="2.53" fill="#fff"/><rect x="93.47" y="101.05" width="2.53" height="2.53"/><polygon points="103.58 101.05 106.11 101.05 106.11 103.58 111.16 103.58 111.16 106.11 113.68 106.11 113.68 111.16 111.16 111.16 111.16 108.63 108.63 108.63 108.63 106.11 103.58 106.11 103.58 101.05"/><rect x="121.26" y="101.05" width="5.05" height="2.53"/><rect x="131.37" y="101.05" width="5.05" height="2.53"/><rect x="136.42" y="101.05" width="2.53" height="2.53" fill="#fff"/><rect x="138.95" y="101.05" width="2.53" height="2.53"/><rect x="141.47" y="101.05" width="2.53" height="2.53" fill="#fff"/><rect x="5.05" y="103.58" width="2.53" height="2.53" fill="#fff"/><rect x="15.16" y="103.58" width="7.58" height="2.53" fill="#fff"/><rect x="42.95" y="103.58" width="5.05" height="2.53"/><polygon points="63.16 103.58 68.21 103.58 68.21 106.11 70.74 106.11 70.74 108.63 73.26 108.63 73.26 106.11 78.32 106.11 78.32 111.16 70.74 111.16 70.74 113.68 58.1 113.68 58.1 111.16 60.63 111.16 60.63 108.63 63.16 108.63 63.16 111.16 68.21 111.16 68.21 108.63 63.16 108.63 63.16 103.58" fill="#fff"/><rect x="68.21" y="103.58" width="2.53" height="2.53"/><rect x="70.74" y="103.58" width="2.53" height="2.53" fill="#fff"/><rect x="85.89" y="103.58" width="5.05" height="5.05"/><rect x="98.53" y="103.58" width="2.53" height="2.53"/><rect x="128.84" y="103.58" width="2.53" height="2.53"/><polygon points="131.37 103.58 136.42 103.58 136.42 106.11 138.95 106.11 138.95 103.58 141.47 103.58 141.47 108.63 133.9 108.63 133.9 106.11 131.37 106.11 131.37 103.58" fill="#fff"/><rect x="136.42" y="103.58" width="2.53" height="2.53"/><polygon points="141.47 103.58 144 103.58 144 113.68 138.95 113.68 138.95 111.16 133.9 111.16 133.9 108.63 141.47 108.63 141.47 103.58"/><rect y="106.11" width="2.53" height="2.53" fill="#fff"/><rect x="70.74" y="106.11" width="2.53" height="2.53"/><rect x="96" y="106.11" width="2.53" height="2.53"/><polygon points="101.05 106.11 103.58 106.11 103.58 108.63 108.63 108.63 108.63 111.16 111.16 111.16 111.16 113.68 113.68 113.68 113.68 116.21 103.58 116.21 103.58 118.74 108.63 118.74 108.63 121.26 111.16 121.26 111.16 118.74 113.68 118.74 113.68 123.79 116.21 123.79 116.21 126.32 118.74 126.32 118.74 128.84 121.26 128.84 121.26 123.79 118.74 123.79 118.74 118.74 113.68 118.74 113.68 116.21 116.21 116.21 116.21 113.68 113.68 113.68 113.68 111.16 116.21 111.16 116.21 108.63 118.74 108.63 118.74 106.11 123.79 106.11 123.79 108.63 121.26 108.63 121.26 111.16 118.74 111.16 118.74 116.21 121.26 116.21 121.26 121.26 126.32 121.26 126.32 118.74 131.37 118.74 131.37 116.21 126.32 116.21 126.32 113.68 123.79 113.68 123.79 108.63 126.32 108.63 126.32 106.11 128.84 106.11 128.84 111.16 133.9 111.16 133.9 113.68 138.95 113.68 138.95 116.21 141.47 116.21 141.47 118.74 138.95 118.74 138.95 121.26 133.9 121.26 133.9 123.79 136.42 123.79 136.42 126.32 133.9 126.32 133.9 128.84 138.95 128.84 138.95 131.37 133.9 131.37 133.9 133.9 138.95 133.9 138.95 136.42 144 136.42 144 138.95 138.95 138.95 138.95 141.47 136.42 141.47 136.42 136.42 133.9 136.42 133.9 138.95 131.37 138.95 131.37 136.42 128.84 136.42 128.84 133.9 121.26 133.9 121.26 131.37 116.21 131.37 116.21 138.95 118.74 138.95 118.74 136.42 128.84 136.42 128.84 138.95 126.32 138.95 126.32 141.47 133.9 141.47 133.9 144 116.21 144 116.21 141.47 111.16 141.47 111.16 138.95 108.63 138.95 108.63 136.42 111.16 136.42 111.16 133.9 113.68 133.9 113.68 128.84 111.16 128.84 111.16 133.9 108.63 133.9 108.63 136.42 106.11 136.42 106.11 141.47 103.58 141.47 103.58 133.9 106.11 133.9 106.11 131.37 108.63 131.37 108.63 126.32 106.11 126.32 106.11 128.84 103.58 128.84 103.58 126.32 101.05 126.32 101.05 128.84 98.53 128.84 98.53 126.32 93.47 126.32 93.47 128.84 98.53 128.84 98.53 136.42 96 136.42 96 133.9 93.47 133.9 93.47 131.37 88.42 131.37 88.42 136.42 85.89 136.42 85.89 128.84 90.95 128.84 90.95 123.79 93.47 123.79 93.47 111.16 98.53 111.16 98.53 113.68 103.58 113.68 103.58 111.16 101.05 111.16 101.05 106.11"/><rect x="103.58" y="106.11" width="5.05" height="2.53" fill="#fff"/><polygon points="128.84 106.11 131.37 106.11 131.37 108.63 133.9 108.63 133.9 111.16 128.84 111.16 128.84 106.11" fill="#fff"/><rect x="131.37" y="106.11" width="2.53" height="2.53"/><polygon points="12.63 108.63 20.21 108.63 20.21 116.21 22.74 116.21 22.74 118.74 30.32 118.74 30.32 121.26 25.26 121.26 25.26 123.79 27.79 123.79 27.79 126.32 30.32 126.32 30.32 136.42 25.26 136.42 25.26 141.47 27.79 141.47 27.79 144 17.68 144 17.68 126.32 0 126.32 0 121.26 12.63 121.26 12.63 118.74 17.68 118.74 17.68 121.26 15.16 121.26 15.16 123.79 20.21 123.79 20.21 126.32 22.74 126.32 22.74 128.84 20.21 128.84 20.21 131.37 25.26 131.37 25.26 133.9 27.79 133.9 27.79 128.84 25.26 128.84 25.26 126.32 22.74 126.32 22.74 121.26 20.21 121.26 20.21 118.74 17.68 118.74 17.68 116.21 15.16 116.21 15.16 113.68 17.68 113.68 17.68 111.16 15.16 111.16 15.16 113.68 12.63 113.68 12.63 108.63" fill="#fff"/><rect x="37.89" y="108.63" width="2.53" height="2.53" fill="#fff"/><rect x="50.53" y="108.63" width="2.53" height="2.53" fill="#fff"/><rect x="63.16" y="108.63" width="5.05" height="2.53"/><rect x="90.95" y="108.63" width="2.53" height="2.53"/><rect x="108.63" y="108.63" width="2.53" height="2.53" fill="#fff"/><polygon points="121.26 108.63 123.79 108.63 123.79 113.68 121.26 113.68 121.26 116.21 118.74 116.21 118.74 111.16 121.26 111.16 121.26 108.63" fill="#fff"/><polygon points="0 111.16 10.11 111.16 10.11 113.68 7.58 113.68 7.58 116.21 5.05 116.21 5.05 113.68 2.53 113.68 2.53 116.21 0 116.21 0 111.16" fill="#fff"/><rect x="15.16" y="111.16" width="2.53" height="2.53"/><rect x="32.84" y="111.16" width="2.53" height="2.53"/><rect x="45.47" y="111.16" width="2.53" height="2.53" fill="#fff"/><rect x="88.42" y="111.16" width="2.53" height="2.53"/><polygon points="90.95 111.16 93.47 111.16 93.47 123.79 90.95 123.79 90.95 116.21 88.42 116.21 88.42 113.68 90.95 113.68 90.95 111.16" fill="#fff"/><rect x="111.16" y="111.16" width="2.53" height="2.53" fill="#fff"/><rect x="133.89" y="111.16" width="5.05" height="2.53" fill="#fff"/><rect x="2.53" y="113.68" width="2.53" height="2.53"/><rect x="22.74" y="113.68" width="5.05" height="2.53" fill="#fff"/><polygon points="27.79 113.68 30.32 113.68 30.32 116.21 32.84 116.21 32.84 123.79 30.32 123.79 30.32 126.32 27.79 126.32 27.79 123.79 25.26 123.79 25.26 121.26 30.32 121.26 30.32 118.74 22.74 118.74 22.74 116.21 27.79 116.21 27.79 113.68"/><rect x="42.95" y="113.68" width="2.53" height="2.53" fill="#fff"/><polygon points="53.05 113.68 55.58 113.68 55.58 116.21 58.1 116.21 58.1 118.74 55.58 118.74 55.58 123.79 58.1 123.79 58.1 118.74 60.63 118.74 60.63 123.79 63.16 123.79 63.16 126.32 65.68 126.32 65.68 131.37 63.16 131.37 63.16 133.9 60.63 133.9 60.63 131.37 58.1 131.37 58.1 128.84 53.05 128.84 53.05 131.37 58.1 131.37 58.1 133.9 55.58 133.9 55.58 144 50.53 144 50.53 141.47 53.05 141.47 53.05 133.9 50.53 133.9 50.53 131.37 48 131.37 48 133.9 50.53 133.9 50.53 138.95 48 138.95 48 136.42 45.47 136.42 45.47 131.37 42.95 131.37 42.95 128.84 50.53 128.84 50.53 123.79 53.05 123.79 53.05 121.26 50.53 121.26 50.53 116.21 53.05 116.21 53.05 113.68" fill="#fff"/><polygon points="75.79 113.68 78.32 113.68 78.32 116.21 80.84 116.21 80.84 118.74 78.32 118.74 78.32 121.26 75.79 121.26 75.79 118.74 73.26 118.74 73.26 116.21 75.79 116.21 75.79 113.68" fill="#fff"/><rect x="113.68" y="113.68" width="2.53" height="2.53" fill="#fff"/><rect x="121.26" y="113.68" width="2.53" height="2.53"/><rect x="123.79" y="113.68" width="2.53" height="2.53" fill="#fff"/><polygon points="138.95 113.68 144 113.68 144 118.74 141.47 118.74 141.47 116.21 138.95 116.21 138.95 113.68" fill="#fff"/><polygon points="0 116.21 2.53 116.21 2.53 118.74 5.05 118.74 5.05 116.21 7.58 116.21 7.58 118.74 12.63 118.74 12.63 121.26 0 121.26 0 116.21"/><rect x="2.53" y="116.21" width="2.53" height="2.53" fill="#fff"/><rect x="7.58" y="116.21" width="5.05" height="2.53" fill="#fff"/><polygon points="60.63 116.21 68.21 116.21 68.21 121.26 63.16 121.26 63.16 118.74 60.63 118.74 60.63 116.21" fill="#fff"/><rect x="83.37" y="116.21" width="2.53" height="2.53" fill="#fff"/><rect x="96" y="116.21" width="2.53" height="2.53" fill="#fff"/><polygon points="103.58 116.21 113.68 116.21 113.68 118.74 111.16 118.74 111.16 121.26 108.63 121.26 108.63 118.74 103.58 118.74 103.58 116.21" fill="#fff"/><polygon points="121.26 116.21 123.79 116.21 123.79 118.74 126.32 118.74 126.32 121.26 121.26 121.26 121.26 116.21" fill="#fff"/><rect x="123.79" y="116.21" width="2.53" height="2.53"/><rect x="126.32" y="116.21" width="5.05" height="2.53" fill="#fff"/><polygon points="17.68 118.74 20.21 118.74 20.21 121.26 22.74 121.26 22.74 126.32 20.21 126.32 20.21 123.79 15.16 123.79 15.16 121.26 17.68 121.26 17.68 118.74"/><rect x="55.58" y="118.74" width="2.53" height="5.05"/><rect x="70.74" y="118.74" width="2.53" height="2.53" fill="#fff"/><rect x="80.84" y="118.74" width="2.53" height="2.53" fill="#fff"/><rect x="83.37" y="118.74" width="2.53" height="2.53"/><rect x="85.89" y="118.74" width="2.53" height="2.53" fill="#fff"/><polygon points="113.68 118.74 118.74 118.74 118.74 123.79 121.26 123.79 121.26 128.84 118.74 128.84 118.74 126.32 116.21 126.32 116.21 123.79 113.68 123.79 113.68 118.74" fill="#fff"/><rect x="138.95" y="118.74" width="2.53" height="2.53" fill="#fff"/><polygon points="141.47 118.74 144 118.74 144 126.32 141.47 126.32 141.47 123.79 138.95 123.79 138.95 121.26 141.47 121.26 141.47 118.74"/><rect x="83.37" y="121.26" width="2.53" height="2.53" fill="#fff"/><rect x="96" y="121.26" width="5.05" height="2.53" fill="#fff"/><rect x="103.58" y="121.26" width="2.53" height="2.53" fill="#fff"/><polygon points="133.9 121.26 138.95 121.26 138.95 123.79 141.47 123.79 141.47 126.32 138.95 126.32 138.95 128.84 133.9 128.84 133.9 126.32 136.42 126.32 136.42 123.79 133.9 123.79 133.9 121.26" fill="#fff"/><polygon points="35.37 123.79 37.9 123.79 37.9 128.84 42.95 128.84 42.95 131.37 45.47 131.37 45.47 136.42 42.95 136.42 42.95 133.9 40.42 133.9 40.42 131.37 35.37 131.37 35.37 133.9 32.84 133.9 32.84 136.42 30.32 136.42 30.32 126.32 32.84 126.32 32.84 128.84 35.37 128.84 35.37 123.79"/><rect x="68.21" y="123.79" width="7.58" height="7.58" fill="#fff"/><polygon points="85.89 123.79 90.95 123.79 90.95 128.84 85.89 128.84 85.89 136.42 80.84 136.42 80.84 131.37 78.32 131.37 78.32 128.84 80.84 128.84 80.84 126.32 85.89 126.32 85.89 123.79" fill="#fff"/><rect x="123.79" y="123.79" width="7.58" height="7.58" fill="#fff"/><rect y="126.32" width="17.68" height="17.68"/><polygon points="22.74 126.32 25.26 126.32 25.26 128.84 27.79 128.84 27.79 133.9 25.26 133.9 25.26 131.37 20.21 131.37 20.21 128.84 22.74 128.84 22.74 126.32"/><rect x="70.74" y="126.32" width="2.53" height="2.53"/><rect x="93.47" y="126.32" width="5.05" height="2.53" fill="#fff"/><polygon points="101.05 126.32 103.58 126.32 103.58 128.84 106.11 128.84 106.11 126.32 108.63 126.32 108.63 131.37 106.11 131.37 106.11 133.9 103.58 133.9 103.58 141.47 101.05 141.47 101.05 144 96 144 96 141.47 93.47 141.47 93.47 136.42 88.42 136.42 88.42 131.37 93.47 131.37 93.47 133.9 96 133.9 96 136.42 98.53 136.42 98.53 128.84 101.05 128.84 101.05 126.32" fill="#fff"/><rect x="126.32" y="126.32" width="2.53" height="2.53"/><rect x="138.95" y="126.32" width="2.53" height="2.53"/><polygon points="141.47 126.32 144 126.32 144 131.37 138.95 131.37 138.95 128.84 141.47 128.84 141.47 126.32" fill="#fff"/><rect x="2.53" y="128.84" width="12.63" height="12.63" fill="#fff"/><rect x="53.05" y="128.84" width="5.05" height="2.53"/><rect x="111.16" y="128.84" width="2.53" height="5.05" fill="#fff"/><rect x="5.05" y="131.37" width="7.58" height="7.58"/><polygon points="35.37 131.37 40.42 131.37 40.42 133.9 37.9 133.9 37.9 136.42 35.37 136.42 35.37 138.95 40.42 138.95 40.42 144 35.37 144 35.37 141.47 27.79 141.47 27.79 138.95 30.32 138.95 30.32 136.42 32.84 136.42 32.84 133.9 35.37 133.9 35.37 131.37" fill="#fff"/><rect x="48" y="131.37" width="2.53" height="2.53"/><rect x="58.11" y="131.37" width="2.53" height="2.53"/><polygon points="116.21 131.37 121.26 131.37 121.26 133.9 128.84 133.9 128.84 136.42 118.74 136.42 118.74 138.95 116.21 138.95 116.21 131.37" fill="#fff"/><rect x="133.89" y="131.37" width="5.05" height="2.53" fill="#fff"/><rect x="138.95" y="131.37" width="5.05" height="2.53"/><polygon points="37.9 133.9 40.42 133.9 40.42 136.42 42.95 136.42 42.95 138.95 45.47 138.95 45.47 141.47 48 141.47 48 138.95 50.53 138.95 50.53 133.9 53.05 133.9 53.05 141.47 50.53 141.47 50.53 144 40.42 144 40.42 138.95 35.37 138.95 35.37 136.42 37.9 136.42 37.9 133.9"/><rect x="40.42" y="133.89" width="2.53" height="2.53" fill="#fff"/><rect x="58.11" y="133.89" width="2.53" height="5.05" fill="#fff"/><polygon points="65.68 133.9 70.74 133.9 70.74 136.42 75.79 136.42 75.79 141.47 73.26 141.47 73.26 144 70.74 144 70.74 138.95 68.21 138.95 68.21 141.47 65.68 141.47 65.68 138.95 63.16 138.95 63.16 136.42 65.68 136.42 65.68 133.9" fill="#fff"/><rect x="108.63" y="133.89" width="2.53" height="2.53" fill="#fff"/><rect x="138.95" y="133.89" width="5.05" height="2.53" fill="#fff"/><polygon points="25.26 136.42 30.32 136.42 30.32 138.95 27.79 138.95 27.79 141.47 25.26 141.47 25.26 136.42"/><rect x="42.95" y="136.42" width="2.53" height="2.53" fill="#fff"/><rect x="45.47" y="136.42" width="2.53" height="2.53"/><polygon points="78.32 136.42 80.84 136.42 80.84 138.95 85.89 138.95 85.89 141.47 83.37 141.47 83.37 144 80.84 144 80.84 141.47 78.32 141.47 78.32 136.42" fill="#fff"/><rect x="80.84" y="136.42" width="5.05" height="2.53"/><rect x="85.89" y="136.42" width="2.53" height="2.53" fill="#fff"/><polygon points="88.42 136.42 93.47 136.42 93.47 141.47 85.89 141.47 85.89 138.95 88.42 138.95 88.42 136.42"/><polygon points="106.11 136.42 108.63 136.42 108.63 138.95 111.16 138.95 111.16 141.47 108.63 141.47 108.63 144 103.58 144 103.58 141.47 106.11 141.47 106.11 136.42" fill="#fff"/><polygon points="128.84 136.42 131.37 136.42 131.37 138.95 133.9 138.95 133.9 136.42 136.42 136.42 136.42 141.47 138.95 141.47 138.95 144 133.9 144 133.9 141.47 126.32 141.47 126.32 138.95 128.84 138.95 128.84 136.42" fill="#fff"/><rect x="45.47" y="138.95" width="2.53" height="2.53" fill="#fff"/><polygon points="68.21 138.95 70.74 138.95 70.74 144 65.68 144 65.68 141.47 68.21 141.47 68.21 138.95"/><polygon points="138.95 138.95 144 138.95 144 144 141.47 144 141.47 141.47 138.95 141.47 138.95 138.95" fill="#fff"/><rect x="27.79" y="141.47" width="7.58" height="2.53"/><rect x="60.63" y="141.47" width="5.05" height="2.53" fill="#fff"/><rect x="73.26" y="141.47" width="2.53" height="2.53"/><rect x="75.79" y="141.47" width="2.53" height="2.53" fill="#fff"/><rect x="78.32" y="141.47" width="2.53" height="2.53"/><rect x="83.37" y="141.47" width="2.53" height="2.53"/><rect x="85.89" y="141.47" width="7.58" height="2.53" fill="#fff"/><rect x="93.47" y="141.47" width="2.53" height="2.53"/><rect x="101.05" y="141.47" width="2.53" height="2.53"/><rect x="108.63" y="141.47" width="2.53" height="2.53"/><rect x="111.16" y="141.47" width="5.05" height="2.53" fill="#fff"/><rect x="138.95" y="141.47" width="2.53" height="2.53"/></svg>