<svg xmlns="http://www.w3.org/2000/svg" width="264.58mm" height="70.03mm" viewBox="0 0 750 198.52"><path d="M139,131.24c.89-4.94,1.85-9.88,2.65-14.84,1.93-12-4.43-22.75-16.14-25.42-9.66-2.21-19.66-2.91-29.5-4.35-9-1.31-18.2-1.67-26.74-4.31-13.09-4-22.82-12.22-24.37-27.18-.75-7.3,1.13-14,6.08-19.22C61.67,24.6,72.75,13.65,83.72,2.61c3.65-3.67,9.37-3.37,13.06.29,11,11,22.22,21.78,33.25,32.75,7.3,7.27,14.36,14.78,21.65,22.07,6.83,6.82,14,13.31,20.66,20.31,2.92,3.06,6.91,5.41,7.58,10.4.88,6.68-4.13,9.58-7.89,13.24-7.56,7.34-15.29,14.51-23,21.73-3.07,2.88-6.18,5.7-9.27,8.55Z" transform="translate(-0.32)" fill="#fff" fill-rule="evenodd"/><path d="M41.52,66.26c-.77,4-1.58,7.09-1.9,10.24a113.69,113.69,0,0,0-.69,13.17c.17,10.74,9.24,16.91,17.85,19.25,11.79,3.21,23.89,3.71,36,4.08A55.48,55.48,0,0,1,122,121.92a29.91,29.91,0,0,1,14,24.21c.31,6.25-2.7,12.32-7,17.15-5,5.59-10.27,10.92-15.54,16.26-5.7,5.78-11.52,11.46-17.33,17.14-2.3,2.25-9,2.54-11.34.28-6.32-6.11-12.49-12.37-18.7-18.59Q58.51,170.78,51,163.14c-7.52-7.57-15-15.17-22.57-22.7-7.12-7.08-14.33-14.07-21.46-21.14a55.41,55.41,0,0,1-5.07-5.55,7.76,7.76,0,0,1,.46-9.83c3.16-3.56,6.65-6.83,10.1-10.11C21.85,84.82,31.34,75.88,41.52,66.26Z" transform="translate(-0.32)" fill="#fff" fill-rule="evenodd"/><path d="M434.71,99.06q0-19.34,0-38.67c0-5.77,1.28-7.37,7-8.41,2.36-.43,4.72-.9,7.1-1.14,10.26-1.06,17.56,3.54,23.83,11.4,6.49,8.12,13.9,15.52,20.89,23.24,3,3.35,5.91,6.85,9.12,10,1.06,1,3.36,2,4.39,1.57s2-2.78,2-4.3c.17-10.61.07-21.23.1-31.85,0-6.57,1.32-7.68,7.64-9a34.73,34.73,0,0,1,14.57.08c5.66,1.19,7.37,2.82,7.37,8.57q0,24.65-.05,49.29c0,9.1,0,18.21,0,27.31,0,6.72-2,9.47-8.68,9.91A82,82,0,0,1,513.56,146a9.86,9.86,0,0,1-5.28-3.21c-12.25-13.47-24.37-27.06-36.53-40.61-.25-.28-.45-.68-.76-.83-1.49-.73-3.64-2.34-4.39-1.85a6.28,6.28,0,0,0-2.24,4.59c-.19,11.12-.11,22.25-.12,33.37,0,6.49-.64,8.19-7,9.09-5.69.81-11.65,0-17.46-.54-4.45-.38-5.08-3.81-5.07-7.5,0-10.74,0-21.49,0-32.23V99.06Z" transform="translate(-0.32)" fill="#fff" fill-rule="evenodd"/><path d="M253.54,149.13c-20-.61-35.16-3.33-49.47-9.89-7.1-3.25-8-9.27-2.18-14.5a16.82,16.82,0,0,0,1.34-1.33c5.46-6.08,9.12-6.89,16.47-3.27a67.24,67.24,0,0,0,33,7.17,25.67,25.67,0,0,0,9.12-2c1.57-.69,3.35-3.09,3.3-4.68,0-1.8-1.68-4.62-3.23-5.12a200.69,200.69,0,0,0-22.22-5.87c-9.79-1.94-19.54-3.84-28.42-8.66-16.38-8.89-15.6-29.65-1.85-40,11.49-8.68,25-10.5,38.72-10,9.38.37,18.75,2.06,28,3.73,4.14.75,8.13,2.68,12,4.46,3.3,1.52,4.22,7.58,1.61,11a42.25,42.25,0,0,1-7.22,7.65C279,80.63,275,79.71,271.36,78A58.18,58.18,0,0,0,239,72.67c-3.32.38-6.37,3.32-6.3,6.12.09,3.43,2.4,5.23,5.41,5.93,9.19,2.15,18.44,4.08,27.65,6.17s17.81,4.91,25.68,10.45c5.64,4,8.83,16,6.8,23-3.37,11.61-12.07,17.55-22.63,20.66C267.09,147.55,258.09,148.33,253.54,149.13Z" transform="translate(-0.32)" fill="#fff" fill-rule="evenodd"/><path d="M385.69,83.26c0-7.84,0-15.68,0-23.52,0-5.06,1.6-6.5,6.45-7.7a37.24,37.24,0,0,1,18,.12c4.15,1,6,2.7,6,7-.09,18.2.64,36.47-.83,54.57-1.25,15.35-10.87,26.4-26.35,31.27-9.49,3-19.4,4.85-29.46,3.74-11-1.22-22.13-2.82-31.3-9.84a35.82,35.82,0,0,1-14.31-28c-.64-17.3-.31-34.64-.27-52,0-3.52,1.88-5.79,5.54-6.67a39,39,0,0,1,18.74-.12c4.81,1.18,6.14,2.44,6.16,7.54.07,14.53-.21,29.07.12,43.6.1,4.41.86,9.24,2.84,13.09,5.26,10.23,20.42,11,28.49,6.83,7.31-3.82,10.18-10,10.17-17.92,0-7.33,0-14.66,0-22Z" transform="translate(-0.32)" fill="#fff" fill-rule="evenodd"/><path d="M652.07,147.56c-1.39-.06-2.78-.17-4.17-.18-6.31-.08-10.87-2.59-12.71-9a34.08,34.08,0,0,0-1.43-3.49c-1.68-4.17-4.6-5.64-9.2-5.5-10.73.34-21.48.22-32.22.07-3.51-.06-5.26,1.47-6.42,4.57a42.07,42.07,0,0,1-4.32,9.17c-1.07,1.57-3.34,2.69-5.28,3.21-6.31,1.67-12.73,1.91-19-.36-4.6-1.67-5.91-5.37-3.83-9.64,5.9-12.12,11.71-24.28,17.7-36.35,6.7-13.51,13.55-27,20.35-40.42,4.39-8.68,9.57-10.32,21.16-9.78,10.1.46,14.67,5.56,18.25,14.27,4.77,11.62,11,22.64,16.58,33.93q9,18.25,18,36.55c3.37,6.88.86,11.56-6.74,12.57C656.63,147.48,654.34,147.44,652.07,147.56Zm-42.42-37.81v0a61.78,61.78,0,0,0,7.58-.06c2.37-.3,4.22-1.75,3.08-4.43q-3.69-8.69-7.86-17.17c-1.3-2.65-4.28-2.7-5.57-.08q-4.2,8.44-8,17.11c-1.07,2.46,0,4.33,2.77,4.55S607,109.75,609.65,109.75Z" transform="translate(-0.32)" fill="#fff" fill-rule="evenodd"/><path d="M701.87,51.94h38.68c7.66,0,9.6,1.93,9.75,9.66a42.6,42.6,0,0,1-.15,5.3c-.48,4.52-2.9,6.64-7.52,6.67-6.57.06-13.15.12-19.72.13-5.19,0-6.59,1.29-6.6,6.39,0,18.45-.27,36.91,0,55.36.15,10.5-2.39,10.34-10.47,11.56-4.7.71-9.81-.27-14.57-1.3-3.68-.79-5.14-3.91-5.11-7.84.09-19.08.07-38.17,0-57.26,0-6.41-.5-6.86-6.93-6.89-5.94,0-11.88,0-17.83,0-5.51,0-7.65-1.64-8.34-7.1a32.93,32.93,0,0,1,.39-9.75c.7-3.9,3.79-5,7.43-4.94,9.48,0,19,0,28.44,0h12.51Z" transform="translate(-0.32)" fill="#fff" fill-rule="evenodd"/></svg>