<svg xmlns="http://www.w3.org/2000/svg" width="144" height="144" viewBox="0 0 144 144"><rect width="30.55" height="30.55"/><polygon points="30.55 0 34.91 0 34.91 13.09 43.64 13.09 43.64 8.73 48 8.73 48 0 65.45 0 65.45 4.36 69.82 4.36 69.82 8.73 56.73 8.73 56.73 4.36 52.36 4.36 52.36 17.45 56.73 17.45 56.73 26.18 52.36 26.18 52.36 21.82 48 21.82 48 17.45 43.64 17.45 43.64 21.82 48 21.82 48 26.18 43.64 26.18 43.64 30.55 39.27 30.55 39.27 21.82 34.91 21.82 34.91 39.27 39.27 39.27 39.27 34.91 43.64 34.91 43.64 39.27 52.36 39.27 52.36 43.64 43.64 43.64 43.64 48 52.36 48 52.36 52.36 56.73 52.36 56.73 34.91 48 34.91 48 26.18 52.36 26.18 52.36 30.55 56.73 30.55 56.73 26.18 61.09 26.18 61.09 30.55 65.45 30.55 65.45 34.91 69.82 34.91 69.82 39.27 65.45 39.27 65.45 43.64 61.09 43.64 61.09 48 65.45 48 65.45 56.73 69.82 56.73 69.82 52.36 74.18 52.36 74.18 61.09 78.55 61.09 78.55 65.45 69.82 65.45 69.82 74.18 74.18 74.18 74.18 69.82 78.55 69.82 78.55 74.18 82.91 74.18 82.91 78.55 78.55 78.55 78.55 82.91 74.18 82.91 74.18 78.55 65.45 78.55 65.45 74.18 61.09 74.18 61.09 69.82 56.73 69.82 56.73 74.18 52.36 74.18 52.36 69.82 48 69.82 48 61.09 56.73 61.09 56.73 56.73 48 56.73 48 52.36 39.27 52.36 39.27 43.64 34.91 43.64 34.91 48 30.55 48 30.55 43.64 26.18 43.64 26.18 39.27 30.55 39.27 30.55 34.91 26.18 34.91 26.18 39.27 21.82 39.27 21.82 34.91 8.73 34.91 8.73 39.27 13.09 39.27 13.09 43.64 8.73 43.64 8.73 52.36 4.36 52.36 4.36 56.73 0 56.73 0 43.64 4.36 43.64 4.36 39.27 0 39.27 0 30.55 30.55 30.55 30.55 0" fill="#fff"/><polygon points="34.91 0 39.27 0 39.27 8.73 43.64 8.73 43.64 13.09 34.91 13.09 34.91 0"/><rect x="39.27" width="4.36" height="8.73" fill="#fff"/><rect x="43.64" width="4.36" height="8.73"/><polygon points="65.45 0 78.55 0 78.55 4.36 74.18 4.36 74.18 8.73 82.91 8.73 82.91 13.09 78.55 13.09 78.55 17.45 74.18 17.45 74.18 13.09 69.82 13.09 69.82 17.45 65.45 17.45 65.45 13.09 56.73 13.09 56.73 17.45 52.36 17.45 52.36 4.36 56.73 4.36 56.73 8.73 69.82 8.73 69.82 4.36 65.45 4.36 65.45 0"/><polygon points="78.55 0 100.36 0 100.36 4.36 96 4.36 96 8.73 91.64 8.73 91.64 13.09 96 13.09 96 17.45 91.64 17.45 91.64 26.18 87.27 26.18 87.27 30.55 82.91 30.55 82.91 17.45 87.27 17.45 87.27 13.09 82.91 13.09 82.91 8.73 74.18 8.73 74.18 4.36 78.55 4.36 78.55 0" fill="#fff"/><polygon points="100.36 0 109.09 0 109.09 17.45 96 17.45 96 13.09 100.36 13.09 100.36 8.73 104.73 8.73 104.73 4.36 100.36 4.36 100.36 0"/><polygon points="109.09 0 113.45 0 113.45 30.55 144 30.55 144 34.91 130.91 34.91 130.91 39.27 126.55 39.27 126.55 43.64 130.91 43.64 130.91 39.27 135.27 39.27 135.27 48 126.55 48 126.55 52.36 135.27 52.36 135.27 56.73 130.91 56.73 130.91 61.09 126.55 61.09 126.55 65.45 130.91 65.45 130.91 69.82 122.18 69.82 122.18 65.45 113.45 65.45 113.45 69.82 117.82 69.82 117.82 74.18 113.45 74.18 113.45 78.55 109.09 78.55 109.09 74.18 100.36 74.18 100.36 78.55 109.09 78.55 109.09 82.91 96 82.91 96 74.18 82.91 74.18 82.91 65.45 87.27 65.45 87.27 61.09 78.55 61.09 78.55 56.73 82.91 56.73 82.91 52.36 87.27 52.36 87.27 43.64 82.91 43.64 82.91 34.91 100.36 34.91 100.36 43.64 104.73 43.64 104.73 56.73 96 56.73 96 52.36 100.36 52.36 100.36 48 96 48 96 39.27 91.64 39.27 91.64 56.73 96 56.73 96 65.45 91.64 65.45 91.64 69.82 100.36 69.82 100.36 61.09 104.73 61.09 104.73 56.73 109.09 56.73 109.09 61.09 122.18 61.09 122.18 56.73 113.45 56.73 113.45 52.36 117.82 52.36 117.82 48 122.18 48 122.18 43.64 117.82 43.64 117.82 39.27 122.18 39.27 122.18 34.91 104.73 34.91 104.73 30.55 109.09 30.55 109.09 21.82 96 21.82 96 17.45 109.09 17.45 109.09 0" fill="#fff"/><rect x="113.45" width="30.55" height="30.55"/><rect x="4.36" y="4.36" width="21.82" height="21.82" fill="#fff"/><rect x="96" y="4.36" width="4.36" height="4.36"/><rect x="100.36" y="4.36" width="4.36" height="4.36" fill="#fff"/><rect x="117.82" y="4.36" width="21.82" height="21.82" fill="#fff"/><rect x="8.73" y="8.73" width="13.09" height="13.09"/><rect x="91.64" y="8.73" width="4.36" height="4.36"/><rect x="96" y="8.73" width="4.36" height="4.36" fill="#fff"/><rect x="122.18" y="8.73" width="13.09" height="13.09"/><polygon points="56.73 13.09 65.45 13.09 65.45 17.45 69.82 17.45 69.82 21.82 65.45 21.82 65.45 26.18 61.09 26.18 61.09 17.45 56.73 17.45 56.73 13.09" fill="#fff"/><rect x="69.82" y="13.09" width="4.36" height="4.36" fill="#fff"/><rect x="78.55" y="13.09" width="4.36" height="4.36" fill="#fff"/><rect x="82.91" y="13.09" width="4.36" height="4.36"/><rect x="43.64" y="17.45" width="4.36" height="4.36"/><rect x="56.73" y="17.45" width="4.36" height="8.73"/><rect x="69.82" y="17.45" width="4.36" height="4.36"/><rect x="74.18" y="17.45" width="4.36" height="4.36" fill="#fff"/><polygon points="78.55 17.45 82.91 17.45 82.91 30.55 78.55 30.55 78.55 26.18 74.18 26.18 74.18 21.82 78.55 21.82 78.55 17.45"/><polygon points="91.64 17.45 96 17.45 96 21.82 109.09 21.82 109.09 30.55 104.73 30.55 104.73 26.18 100.36 26.18 100.36 30.55 104.73 30.55 104.73 34.91 122.18 34.91 122.18 39.27 117.82 39.27 117.82 43.64 122.18 43.64 122.18 48 117.82 48 117.82 52.36 113.45 52.36 113.45 48 109.09 48 109.09 52.36 113.45 52.36 113.45 56.73 122.18 56.73 122.18 61.09 109.09 61.09 109.09 56.73 104.73 56.73 104.73 43.64 109.09 43.64 109.09 39.27 104.73 39.27 104.73 43.64 100.36 43.64 100.36 34.91 82.91 34.91 82.91 30.55 87.27 30.55 87.27 26.18 91.64 26.18 91.64 30.55 96 30.55 96 26.18 91.64 26.18 91.64 17.45"/><polygon points="34.91 21.82 39.27 21.82 39.27 30.55 43.64 30.55 43.64 26.18 48 26.18 48 34.91 56.73 34.91 56.73 52.36 52.36 52.36 52.36 48 43.64 48 43.64 43.64 52.36 43.64 52.36 39.27 43.64 39.27 43.64 34.91 39.27 34.91 39.27 39.27 34.91 39.27 34.91 21.82"/><rect x="48" y="21.82" width="4.36" height="4.36"/><rect x="65.45" y="21.82" width="4.36" height="4.36"/><rect x="69.82" y="21.82" width="4.36" height="4.36" fill="#fff"/><rect x="52.36" y="26.18" width="4.36" height="4.36"/><rect x="61.09" y="26.18" width="4.36" height="4.36"/><rect x="65.45" y="26.18" width="4.36" height="4.36" fill="#fff"/><rect x="69.82" y="26.18" width="4.36" height="4.36"/><polygon points="74.18 26.18 78.55 26.18 78.55 30.55 82.91 30.55 82.91 34.91 69.82 34.91 69.82 30.55 74.18 30.55 74.18 26.18" fill="#fff"/><rect x="91.64" y="26.18" width="4.36" height="4.36" fill="#fff"/><rect x="100.36" y="26.18" width="4.36" height="4.36" fill="#fff"/><rect x="65.45" y="30.55" width="4.36" height="4.36"/><polygon points="8.73 34.91 21.82 34.91 21.82 39.27 17.45 39.27 17.45 48 26.18 48 26.18 52.36 30.55 52.36 30.55 48 34.91 48 34.91 43.64 39.27 43.64 39.27 52.36 34.91 52.36 34.91 61.09 30.55 61.09 30.55 56.73 26.18 56.73 26.18 61.09 21.82 61.09 21.82 65.45 17.45 65.45 17.45 56.73 21.82 56.73 21.82 52.36 8.73 52.36 8.73 43.64 13.09 43.64 13.09 39.27 8.73 39.27 8.73 34.91"/><rect x="26.18" y="34.91" width="4.36" height="4.36"/><polygon points="69.82 34.91 82.91 34.91 82.91 43.64 87.27 43.64 87.27 52.36 82.91 52.36 82.91 56.73 78.55 56.73 78.55 61.09 74.18 61.09 74.18 52.36 78.55 52.36 78.55 43.64 74.18 43.64 74.18 52.36 69.82 52.36 69.82 56.73 65.45 56.73 65.45 48 69.82 48 69.82 43.64 65.45 43.64 65.45 39.27 69.82 39.27 69.82 34.91"/><polygon points="130.91 34.91 144 34.91 144 43.64 139.64 43.64 139.64 48 144 48 144 52.36 139.64 52.36 139.64 56.73 135.27 56.73 135.27 52.36 126.55 52.36 126.55 48 135.27 48 135.27 39.27 130.91 39.27 130.91 34.91"/><rect y="39.27" width="4.36" height="4.36"/><polygon points="17.45 39.27 21.82 39.27 21.82 43.64 26.18 43.64 26.18 48 17.45 48 17.45 39.27" fill="#fff"/><rect x="21.82" y="39.27" width="4.36" height="4.36"/><polygon points="91.64 39.27 96 39.27 96 48 100.36 48 100.36 52.36 96 52.36 96 56.73 91.64 56.73 91.64 39.27"/><rect x="104.73" y="39.27" width="4.36" height="4.36" fill="#fff"/><rect x="126.55" y="39.27" width="4.36" height="4.36"/><rect x="26.18" y="43.64" width="4.36" height="4.36"/><rect x="61.09" y="43.64" width="4.36" height="4.36"/><rect x="65.45" y="43.64" width="4.36" height="4.36" fill="#fff"/><rect x="74.18" y="43.64" width="4.36" height="8.73" fill="#fff"/><rect x="139.64" y="43.64" width="4.36" height="4.36" fill="#fff"/><rect x="26.18" y="48" width="4.36" height="4.36" fill="#fff"/><rect x="109.09" y="48" width="4.36" height="4.36" fill="#fff"/><rect x="4.36" y="52.36" width="4.36" height="4.36"/><polygon points="8.73 52.36 21.82 52.36 21.82 56.73 17.45 56.73 17.45 65.45 21.82 65.45 21.82 74.18 17.45 74.18 17.45 78.55 13.09 78.55 13.09 82.91 8.73 82.91 8.73 74.18 13.09 74.18 13.09 69.82 8.73 69.82 8.73 65.45 13.09 65.45 13.09 56.73 8.73 56.73 8.73 52.36" fill="#fff"/><polygon points="34.91 52.36 39.27 52.36 39.27 56.73 43.64 56.73 43.64 69.82 48 69.82 48 74.18 43.64 74.18 43.64 78.55 52.36 78.55 52.36 87.27 56.73 87.27 56.73 91.64 48 91.64 48 87.27 43.64 87.27 43.64 82.91 34.91 82.91 34.91 74.18 39.27 74.18 39.27 69.82 34.91 69.82 34.91 65.45 39.27 65.45 39.27 61.09 34.91 61.09 34.91 52.36" fill="#fff"/><polygon points="39.27 52.36 48 52.36 48 56.73 56.73 56.73 56.73 61.09 48 61.09 48 69.82 43.64 69.82 43.64 56.73 39.27 56.73 39.27 52.36"/><rect x="139.64" y="52.36" width="4.36" height="4.36" fill="#fff"/><rect y="56.73" width="4.36" height="4.36"/><rect x="4.36" y="56.73" width="4.36" height="4.36" fill="#fff"/><polygon points="8.73 56.73 13.09 56.73 13.09 65.45 8.73 65.45 8.73 69.82 13.09 69.82 13.09 74.18 8.73 74.18 8.73 82.91 13.09 82.91 13.09 78.55 17.45 78.55 17.45 74.18 21.82 74.18 21.82 65.45 26.18 65.45 26.18 69.82 30.55 69.82 30.55 65.45 34.91 65.45 34.91 69.82 39.27 69.82 39.27 74.18 34.91 74.18 34.91 82.91 26.18 82.91 26.18 78.55 30.55 78.55 30.55 74.18 26.18 74.18 26.18 78.55 21.82 78.55 21.82 87.27 13.09 87.27 13.09 91.64 4.36 91.64 4.36 78.55 0 78.55 0 74.18 4.36 74.18 4.36 69.82 0 69.82 0 65.45 4.36 65.45 4.36 61.09 8.73 61.09 8.73 56.73"/><rect x="26.18" y="56.73" width="4.36" height="4.36" fill="#fff"/><polygon points="96 56.73 104.73 56.73 104.73 61.09 100.36 61.09 100.36 69.82 91.64 69.82 91.64 65.45 96 65.45 96 56.73"/><polygon points="130.91 56.73 135.27 56.73 135.27 61.09 139.64 61.09 139.64 69.82 135.27 69.82 135.27 74.18 117.82 74.18 117.82 69.82 113.45 69.82 113.45 65.45 122.18 65.45 122.18 69.82 130.91 69.82 130.91 65.45 126.55 65.45 126.55 61.09 130.91 61.09 130.91 56.73"/><rect x="135.27" y="56.73" width="4.36" height="4.36" fill="#fff"/><rect x="139.64" y="56.73" width="4.36" height="4.36"/><rect y="61.09" width="4.36" height="4.36" fill="#fff"/><rect x="21.82" y="61.09" width="4.36" height="4.36" fill="#fff"/><rect x="26.18" y="61.09" width="4.36" height="4.36"/><rect x="30.55" y="61.09" width="4.36" height="4.36" fill="#fff"/><rect x="34.91" y="61.09" width="4.36" height="4.36"/><polygon points="78.55 61.09 87.27 61.09 87.27 65.45 82.91 65.45 82.91 74.18 78.55 74.18 78.55 69.82 74.18 69.82 74.18 74.18 69.82 74.18 69.82 65.45 78.55 65.45 78.55 61.09"/><rect x="139.64" y="61.09" width="4.36" height="8.73" fill="#fff"/><rect x="26.18" y="65.45" width="4.36" height="4.36" fill="#fff"/><rect y="69.82" width="4.36" height="4.36" fill="#fff"/><polygon points="48 69.82 52.36 69.82 52.36 74.18 56.73 74.18 56.73 78.55 61.09 78.55 61.09 82.91 56.73 82.91 56.73 87.27 52.36 87.27 52.36 78.55 43.64 78.55 43.64 74.18 48 74.18 48 69.82"/><rect x="56.73" y="69.82" width="4.36" height="4.36"/><polygon points="135.27 69.82 139.64 69.82 139.64 74.18 144 74.18 144 78.55 130.91 78.55 130.91 82.91 126.55 82.91 126.55 78.55 122.18 78.55 122.18 87.27 117.82 87.27 117.82 74.18 135.27 74.18 135.27 69.82" fill="#fff"/><rect x="139.64" y="69.82" width="4.36" height="4.36"/><rect x="26.18" y="74.18" width="4.36" height="4.36" fill="#fff"/><rect x="56.73" y="74.18" width="4.36" height="4.36" fill="#fff"/><rect x="61.09" y="74.18" width="4.36" height="4.36"/><polygon points="82.91 74.18 96 74.18 96 82.91 109.09 82.91 109.09 87.27 100.36 87.27 100.36 104.73 96 104.73 96 109.09 91.64 109.09 91.64 104.73 78.55 104.73 78.55 109.09 74.18 109.09 74.18 122.18 69.82 122.18 69.82 117.82 61.09 117.82 61.09 122.18 65.45 122.18 65.45 126.55 52.36 126.55 52.36 122.18 56.73 122.18 56.73 117.82 52.36 117.82 52.36 113.45 65.45 113.45 65.45 109.09 56.73 109.09 56.73 100.36 52.36 100.36 52.36 96 48 96 48 91.64 56.73 91.64 56.73 87.27 61.09 87.27 61.09 91.64 65.45 91.64 65.45 100.36 61.09 100.36 61.09 104.73 74.18 104.73 74.18 100.36 69.82 100.36 69.82 96 74.18 96 74.18 87.27 69.82 87.27 69.82 82.91 65.45 82.91 65.45 78.55 74.18 78.55 74.18 82.91 78.55 82.91 78.55 78.55 82.91 78.55 82.91 82.91 87.27 82.91 87.27 87.27 82.91 87.27 82.91 91.64 78.55 91.64 78.55 100.36 87.27 100.36 87.27 91.64 91.64 91.64 91.64 100.36 96 100.36 96 87.27 91.64 87.27 91.64 78.55 82.91 78.55 82.91 74.18"/><rect x="100.36" y="74.18" width="8.73" height="4.36"/><polygon points="113.45 74.18 117.82 74.18 117.82 87.27 122.18 87.27 122.18 78.55 126.55 78.55 126.55 82.91 130.91 82.91 130.91 78.55 144 78.55 144 96 139.64 96 139.64 91.64 135.27 91.64 135.27 87.27 139.64 87.27 139.64 82.91 135.27 82.91 135.27 87.27 130.91 87.27 130.91 91.64 135.27 91.64 135.27 96 130.91 96 130.91 100.36 135.27 100.36 135.27 104.73 130.91 104.73 130.91 109.09 135.27 109.09 135.27 104.73 139.64 104.73 139.64 109.09 144 109.09 144 113.45 139.64 113.45 139.64 117.82 144 117.82 144 126.55 139.64 126.55 139.64 130.91 135.27 130.91 135.27 122.18 126.55 122.18 126.55 126.55 130.91 126.55 130.91 130.91 122.18 130.91 122.18 126.55 113.45 126.55 113.45 130.91 117.82 130.91 117.82 135.27 109.09 135.27 109.09 126.55 104.73 126.55 104.73 122.18 100.36 122.18 100.36 117.82 96 117.82 96 113.45 100.36 113.45 100.36 109.09 104.73 109.09 104.73 100.36 109.09 100.36 109.09 104.73 126.55 104.73 126.55 100.36 122.18 100.36 122.18 96 126.55 96 126.55 91.64 122.18 91.64 122.18 96 117.82 96 117.82 91.64 109.09 91.64 109.09 87.27 113.45 87.27 113.45 82.91 109.09 82.91 109.09 78.55 113.45 78.55 113.45 74.18"/><rect y="78.55" width="4.36" height="13.09" fill="#fff"/><polygon points="21.82 78.55 26.18 78.55 26.18 82.91 34.91 82.91 34.91 87.27 26.18 87.27 26.18 91.64 17.45 91.64 17.45 96 8.73 96 8.73 100.36 21.82 100.36 21.82 104.73 8.73 104.73 8.73 109.09 34.91 109.09 34.91 113.45 43.64 113.45 43.64 109.09 48 109.09 48 113.45 52.36 113.45 52.36 117.82 56.73 117.82 56.73 122.18 52.36 122.18 52.36 126.55 65.45 126.55 65.45 122.18 61.09 122.18 61.09 117.82 69.82 117.82 69.82 122.18 74.18 122.18 74.18 109.09 78.55 109.09 78.55 117.82 82.91 117.82 82.91 126.55 87.27 126.55 87.27 130.91 82.91 130.91 82.91 139.64 74.18 139.64 74.18 144 56.73 144 56.73 139.64 69.82 139.64 69.82 135.27 65.45 135.27 65.45 130.91 61.09 130.91 61.09 135.27 56.73 135.27 56.73 139.64 52.36 139.64 52.36 130.91 48 130.91 48 139.64 43.64 139.64 43.64 144 30.55 144 30.55 113.45 0 113.45 0 109.09 4.36 109.09 4.36 91.64 13.09 91.64 13.09 87.27 21.82 87.27 21.82 78.55" fill="#fff"/><polygon points="61.09 78.55 65.45 78.55 65.45 82.91 69.82 82.91 69.82 87.27 65.45 87.27 65.45 91.64 61.09 91.64 61.09 87.27 56.73 87.27 56.73 82.91 61.09 82.91 61.09 78.55" fill="#fff"/><polygon points="82.91 78.55 91.64 78.55 91.64 87.27 96 87.27 96 100.36 91.64 100.36 91.64 91.64 87.27 91.64 87.27 100.36 78.55 100.36 78.55 91.64 82.91 91.64 82.91 87.27 87.27 87.27 87.27 82.91 82.91 82.91 82.91 78.55" fill="#fff"/><rect x="34.91" y="82.91" width="8.73" height="4.36"/><rect x="109.09" y="82.91" width="4.36" height="4.36" fill="#fff"/><rect x="135.27" y="82.91" width="4.36" height="4.36" fill="#fff"/><rect x="26.18" y="87.27" width="8.73" height="4.36"/><polygon points="34.91 87.27 43.64 87.27 43.64 91.64 48 91.64 48 96 43.64 96 43.64 100.36 39.27 100.36 39.27 104.73 26.18 104.73 26.18 100.36 34.91 100.36 34.91 96 26.18 96 26.18 91.64 34.91 91.64 34.91 87.27" fill="#fff"/><rect x="43.64" y="87.27" width="4.36" height="4.36"/><rect x="65.45" y="87.27" width="4.36" height="4.36"/><polygon points="69.82 87.27 74.18 87.27 74.18 96 69.82 96 69.82 100.36 74.18 100.36 74.18 104.73 61.09 104.73 61.09 100.36 65.45 100.36 65.45 91.64 69.82 91.64 69.82 87.27" fill="#fff"/><polygon points="100.36 87.27 109.09 87.27 109.09 91.64 104.73 91.64 104.73 96 109.09 96 109.09 91.64 117.82 91.64 117.82 96 122.18 96 122.18 100.36 126.55 100.36 126.55 104.73 109.09 104.73 109.09 100.36 104.73 100.36 104.73 109.09 100.36 109.09 100.36 113.45 96 113.45 96 117.82 100.36 117.82 100.36 122.18 91.64 122.18 91.64 117.82 82.91 117.82 82.91 113.45 91.64 113.45 91.64 109.09 96 109.09 96 104.73 100.36 104.73 100.36 87.27" fill="#fff"/><rect x="130.91" y="87.27" width="4.36" height="4.36" fill="#fff"/><rect y="91.64" width="4.36" height="17.45"/><polygon points="17.45 91.64 26.18 91.64 26.18 96 34.91 96 34.91 100.36 26.18 100.36 26.18 104.73 39.27 104.73 39.27 100.36 43.64 100.36 43.64 104.73 48 104.73 48 109.09 43.64 109.09 43.64 113.45 34.91 113.45 34.91 109.09 8.73 109.09 8.73 104.73 21.82 104.73 21.82 100.36 8.73 100.36 8.73 96 17.45 96 17.45 91.64"/><rect x="104.73" y="91.64" width="4.36" height="4.36"/><rect x="122.18" y="91.64" width="4.36" height="4.36" fill="#fff"/><polygon points="135.27 91.64 139.64 91.64 139.64 96 144 96 144 109.09 139.64 109.09 139.64 104.73 135.27 104.73 135.27 100.36 130.91 100.36 130.91 96 135.27 96 135.27 91.64" fill="#fff"/><rect x="43.64" y="96" width="4.36" height="4.36"/><polygon points="48 96 52.36 96 52.36 100.36 56.73 100.36 56.73 109.09 65.45 109.09 65.45 113.45 52.36 113.45 52.36 109.09 48 109.09 48 104.73 43.64 104.73 43.64 100.36 48 100.36 48 96" fill="#fff"/><rect x="78.55" y="104.73" width="13.09" height="4.36" fill="#fff"/><rect x="130.91" y="104.73" width="4.36" height="4.36" fill="#fff"/><rect x="48" y="109.09" width="4.36" height="4.36"/><polygon points="78.55 109.09 91.64 109.09 91.64 113.45 82.91 113.45 82.91 117.82 78.55 117.82 78.55 109.09"/><rect x="109.09" y="109.09" width="13.09" height="13.09" fill="#fff"/><rect y="113.45" width="30.55" height="30.55"/><rect x="113.45" y="113.45" width="4.36" height="4.36"/><rect x="130.91" y="113.45" width="4.36" height="4.36" fill="#fff"/><rect x="139.64" y="113.45" width="4.36" height="4.36" fill="#fff"/><rect x="4.36" y="117.82" width="21.82" height="21.82" fill="#fff"/><polygon points="39.27 117.82 48 117.82 48 126.55 39.27 126.55 39.27 130.91 43.64 130.91 43.64 135.27 34.91 135.27 34.91 122.18 39.27 122.18 39.27 117.82"/><polygon points="82.91 117.82 91.64 117.82 91.64 122.18 87.27 122.18 87.27 126.55 82.91 126.55 82.91 117.82"/><rect x="8.73" y="122.18" width="13.09" height="13.09"/><rect x="87.27" y="122.18" width="4.36" height="4.36" fill="#fff"/><rect x="91.64" y="122.18" width="8.73" height="4.36"/><polygon points="100.36 122.18 104.73 122.18 104.73 126.55 109.09 126.55 109.09 135.27 117.82 135.27 117.82 139.64 104.73 139.64 104.73 130.91 91.64 130.91 91.64 126.55 100.36 126.55 100.36 122.18" fill="#fff"/><polygon points="126.55 122.18 135.27 122.18 135.27 130.91 139.64 130.91 139.64 126.55 144 126.55 144 144 139.64 144 139.64 139.64 130.91 139.64 130.91 135.27 126.55 135.27 126.55 139.64 130.91 139.64 130.91 144 117.82 144 117.82 139.64 122.18 139.64 122.18 135.27 117.82 135.27 117.82 130.91 113.45 130.91 113.45 126.55 122.18 126.55 122.18 130.91 130.91 130.91 130.91 126.55 126.55 126.55 126.55 122.18" fill="#fff"/><polygon points="69.82 126.55 78.55 126.55 78.55 135.27 74.18 135.27 74.18 130.91 69.82 130.91 69.82 126.55"/><polygon points="87.27 126.55 91.64 126.55 91.64 130.91 104.73 130.91 104.73 139.64 117.82 139.64 117.82 144 100.36 144 100.36 135.27 96 135.27 96 144 74.18 144 74.18 139.64 82.91 139.64 82.91 130.91 87.27 130.91 87.27 126.55"/><rect x="48" y="130.91" width="4.36" height="8.73"/><polygon points="61.09 130.91 65.45 130.91 65.45 135.27 69.82 135.27 69.82 139.64 56.73 139.64 56.73 135.27 61.09 135.27 61.09 130.91"/><rect x="96" y="135.27" width="4.36" height="8.73" fill="#fff"/><rect x="117.82" y="135.27" width="4.36" height="4.36"/><rect x="126.55" y="135.27" width="4.36" height="4.36"/><rect x="43.64" y="139.64" width="4.36" height="4.36"/><rect x="48" y="139.64" width="4.36" height="4.36" fill="#fff"/><rect x="52.36" y="139.64" width="4.36" height="4.36"/><rect x="130.91" y="139.64" width="8.73" height="4.36"/></svg>