<svg xmlns="http://www.w3.org/2000/svg" width="210mm" height="210mm" viewBox="0 0 595.28 595.28"><path d="M297.64,585.83A286.8,286.8,0,0,1,136.48,536.6,289.13,289.13,0,0,1,32.06,409.8,287.81,287.81,0,0,1,58.64,136.45,289.13,289.13,0,0,1,185.44,32,287.81,287.81,0,0,1,458.79,58.61a289.13,289.13,0,0,1,104.42,126.8,287.81,287.81,0,0,1-26.58,273.35,289.13,289.13,0,0,1-126.8,104.42A286.47,286.47,0,0,1,297.64,585.83Z" transform="translate(0 0.03)" fill="#fff"/><path d="M297.64,18.79c154,0,278.81,124.83,278.81,278.82S451.62,576.42,297.64,576.42,18.82,451.59,18.82,297.61,143.65,18.79,297.64,18.79m0-18.82a299.26,299.26,0,0,0-60,6.05A296.3,296.3,0,0,0,131.21,50.81,298.33,298.33,0,0,0,23.4,181.75,296.08,296.08,0,0,0,6.05,237.64a300.2,300.2,0,0,0,0,119.93A296.1,296.1,0,0,0,50.84,464,298.5,298.5,0,0,0,181.78,571.85a296.08,296.08,0,0,0,55.89,17.35,300.69,300.69,0,0,0,119.93,0,295.88,295.88,0,0,0,106.46-44.8A298.57,298.57,0,0,0,571.88,413.47a296.18,296.18,0,0,0,17.35-55.9,300.2,300.2,0,0,0,0-119.93,296.08,296.08,0,0,0-44.8-106.46A298.4,298.4,0,0,0,413.5,23.37,296.18,296.18,0,0,0,357.6,6a299.16,299.16,0,0,0-60-6Z" transform="translate(0 0.03)" fill="#cb1142"/><path d="M297.64,576.42a277.76,277.76,0,0,0,185.48-70.64c-2.59-11.48-5-22.15-5.56-26.75-1.36-11-14.47-64.31-53.35-73.35s-154.71-22.32-214.84-7.23c-50.71,12.73-85.32,15.37-105.21,61.94-2.8,6.55-7.11,15.15-12.43,25.2A278.06,278.06,0,0,0,297.64,576.42Z" transform="translate(0 0.03)" fill="#0063ab"/><ellipse cx="299.46" cy="409.56" rx="68.63" ry="84.85" fill="#bacfe3"/><path d="M300.9,576.42c-.34-.94-34.42-94.44-46.85-132.07L266,440.42c9.11,27.58,30,85.47,40.45,114.43l37.8-118.23,12,3.82-43.4,135.74Z" transform="translate(0 0.03)" fill="#004b7a"/><path d="M207.45,423.09c-5.2,42-3,17.71-7.91,65.1,19-18.09,33.23-57.41,42.49-47.7s32.1,38.2,57.3,38.54c27.24-4.18,48.94-28.36,59.79-28.59s40.46,27.8,50.63,32.77c-8.36-26.67-28.85-78.43-34.09-85s-135-38.49-150.58-10.09S207.45,423.09,207.45,423.09Z" transform="translate(0 0.03)" fill="#dceafa"/><path d="M256.27,334.94c0,35.42-3.64,62.53-12.71,74.64,12,16.22,24.58,53.86,55.77,69.45,34.59-25.09,62.05-61.36,64.08-66.79-3.05-13.22-23.41-27.52-24-38.68s.95-41.23.95-41.23Z" transform="translate(0 0.03)" fill="#fec193"/><path d="M350.19,321.72s-13.68,31.19-41.14,47.12-28.95,22.77-32.56,40.69c-.45-8.82-25.28-41.45-26.38-65.1C249.14,323.75,350.19,321.72,350.19,321.72Z" transform="translate(0 0.03)" fill="#feb67f"/><path d="M397.46,177.42c-5.22-19.93-11.9-36.33-19.36-48.39C363.45,105.3,345,92,335,96.8c-27.17,13.18,11.93,43.93,18.92,61.61S339.31,330,338.79,350.08c-2.4,91.21,47.45,121,89.94,102.09-42.49-27.5-22.16-113.86-21.05-141.48C408.85,281.65,411.83,232.26,397.46,177.42Z" transform="translate(0 0.03)" fill="#362118"/><path d="M189.53,189c-10.33,58.95-14.85,73-5.81,130.62S186,433.26,156.6,436.43c36.61,20.79,78.65-5,90-33s15.8-65.4,15.58-88.08-14.23-144.28-14.23-144.28S203.93,152.62,189.53,189Z" transform="translate(0 0.03)" fill="#362118"/><path d="M297.64,364.44c22.15,0,49.84-32.55,56.79-42.89s13.22-18.14,18-64.08,4.74-67.64-2.88-89-27.47-51.54-71.88-51.54-64.25,30.18-71.88,51.54-7.63,43.06-2.88,89,11,53.74,18,64.08S275.49,364.44,297.64,364.44Z" transform="translate(0 0.03)" fill="#fec193"/><path d="M338.83,224.26a25.73,25.73,0,0,0-16.35,5.26c-1,2.07-1.39,3.6-.72,5.2.82,2,.05,2.57,2.68,2.85,2.92.3,10,1.05,13.08,1a21.57,21.57,0,0,0,8.59-1.42,36.82,36.82,0,0,0,7-4.14,7.75,7.75,0,0,0,.79-2.18S350.11,224.33,338.83,224.26Z" transform="translate(0 0.03)" fill="#f6f4f8"/><path d="M337.52,238.55c-3.07.07-10.16-.68-13.08-1-2.63-.28-1.86-.88-2.68-2.85-.67-1.6-.25-3.13.72-5.2a25.39,25.39,0,0,0-5.46,5.81,1.17,1.17,0,0,0,.69,1.63c2.25.9,8.43,2.73,21,2.74,9.43,0,13.09-4.07,14.47-6.71a36.82,36.82,0,0,1-7,4.14A21.57,21.57,0,0,1,337.52,238.55Z" transform="translate(0 0.03)" fill="#f6ad8b"/><circle cx="336.64" cy="230.26" r="8.33" fill="#4a3528"/><circle cx="336.64" cy="230.26" r="3.41"/><path d="M318.28,233.63a4.15,4.15,0,0,1,.47-.46c5.5-6.17,13.61-10.34,17.62-11.06,4.35-.78,11.08-1.52,16.58,1.6,3.19,1.81,5.26,2.64,7.14,2.93-.18-1.62-3.31-4.37-5.08-5.3s-10.22-4-14.2-4.33a23.5,23.5,0,0,0-15.15,3.67c-6.17,3.79-11.51,12.95-10.58,14.14S317.38,234.82,318.28,233.63Z" transform="translate(0 0.03)" fill="#dba87e"/><path d="M317.38,234.82c6.68-5.32,14.25-10.86,22.67-9.92s10.93,2.58,13.88,5.91c5.34,0,9.61-3.08,10.3-4.19-3.61.41-5.78.21-11.28-2.91s-12.23-2.38-16.58-1.6S322.81,227.75,317.38,234.82Z" transform="translate(0 0.03)"/><path d="M318.58,227.12c1.21-1.3,2.39-2.61,3.65-3.86a25.32,25.32,0,0,1,4.16-3.33,23.14,23.14,0,0,1,10.14-3.17A27.34,27.34,0,0,1,347.09,218a43.84,43.84,0,0,1,9.69,4.32,52.53,52.53,0,0,0-9.82-3.85,27.63,27.63,0,0,0-10.37-1,23.25,23.25,0,0,0-9.95,3C323.6,222.09,321.17,224.72,318.58,227.12Z" transform="translate(0 0.03)" fill="#f2916a"/><path d="M314.51,217.2a2.28,2.28,0,0,1-2.36-2.85c.79-3,2.62-6.3,13.3-9.07,13.95-3.61,24.21-6.48,26.84-6s15.1,5.2,18.55,8.8c-6.61-1-10.18-2.15-17.24-.92s-34,9.06-37.1,9.74A13.65,13.65,0,0,1,314.51,217.2Z" transform="translate(0 0.03)" fill="#452f20"/><path d="M259.61,218.22a1.89,1.89,0,0,1,0-3.75c11-1.38,20.78,2.54,23.36,4.59,3.71,2.94,14,15.3,9.44,34.28,0,0-7,18.71-6.38,24.64.39,3.71.34,5.1,5.55,5.8,2.81.38,5.07,3,7.42,2.9s3-1.61,5.24-2c4.86-.83,7.78-4.25,10.71-3.92,2.36.26,2.93,3.76,1.68,6.25-1.13,2.27-3.65,2.68-4.44,1.74,2.52-1,4.29-6.44,1.73-6.75-3-.36-9.57,8.11-14.69,7.84s-5.95-4.15-11.91-1.32c-4.89,2.31-7.7-4.15-6.44-8,3.69-11.23,15.27-34.05,2.22-50.31C276.24,221.63,266.28,219.17,259.61,218.22Z" transform="translate(0 0.03)" fill="#feb67f"/><path d="M256.25,224.26a25.77,25.77,0,0,1,16.35,5.26c1,2.07,1.39,3.6.72,5.2-.82,2-.05,2.57-2.68,2.85-2.92.3-10,1.05-13.08,1a21.55,21.55,0,0,1-8.59-1.42,36.82,36.82,0,0,1-7-4.14,7.75,7.75,0,0,1-.79-2.18S245,224.33,256.25,224.26Z" transform="translate(0 0.03)" fill="#f6f4f8"/><path d="M257.56,238.55c3.07.07,10.16-.68,13.08-1,2.63-.28,1.86-.88,2.68-2.85.67-1.6.25-3.13-.72-5.2a25.39,25.39,0,0,1,5.46,5.81,1.18,1.18,0,0,1-.7,1.63c-2.24.9-8.43,2.73-20.95,2.74-9.44,0-13.09-4.07-14.47-6.71a36.82,36.82,0,0,0,7,4.14A21.55,21.55,0,0,0,257.56,238.55Z" transform="translate(0 0.03)" fill="#f6ad8b"/><circle cx="258.43" cy="230.26" r="8.33" fill="#4a3528"/><circle cx="258.43" cy="230.26" r="3.41"/><path d="M276.8,233.63a4.15,4.15,0,0,0-.47-.46c-5.5-6.17-13.62-10.34-17.62-11.06-4.35-.78-11.08-1.52-16.58,1.6-3.19,1.81-5.26,2.64-7.15,2.93.19-1.62,3.32-4.37,5.08-5.3s10.22-4,14.21-4.33a23.5,23.5,0,0,1,15.15,3.67c6.17,3.79,11.51,12.95,10.58,14.14S277.7,234.82,276.8,233.63Z" transform="translate(0 0.03)" fill="#dba87e"/><path d="M276.49,227.12c-2.58-2.4-5-5-8.05-6.78a23.29,23.29,0,0,0-9.95-3,27.63,27.63,0,0,0-10.37,1,52.53,52.53,0,0,0-9.82,3.85A43.63,43.63,0,0,1,248,218a27.34,27.34,0,0,1,10.56-1.19,23.14,23.14,0,0,1,10.14,3.17,25.32,25.32,0,0,1,4.16,3.33C274.11,224.51,275.29,225.82,276.49,227.12Z" transform="translate(0 0.03)" fill="#f2916a"/><path d="M280.57,217.2a2.28,2.28,0,0,0,2.36-2.85c-.79-3-2.63-6.3-13.3-9.07-14-3.61-24.22-6.48-26.84-6s-15.1,5.2-18.55,8.8c6.61-1,10.18-2.15,17.23-.92s34,9.06,37.1,9.74A14,14,0,0,0,280.57,217.2Z" transform="translate(0 0.03)" fill="#452f20"/><path d="M283.32,281.78c.07.71.14,1.37.23,2a14.12,14.12,0,0,0,.42,1.87,7,7,0,0,0,.74,1.7,4.8,4.8,0,0,0,1.35,1.39,2.73,2.73,0,0,1-2-.86,4.64,4.64,0,0,1-1.13-1.92,6.1,6.1,0,0,1-.22-2.16A4.73,4.73,0,0,1,283.32,281.78Z" transform="translate(0 0.03)"/><path d="M287.36,286.43c-.36-1.25,5.34-1.91,7.06.62C290,287.53,287.84,288.08,287.36,286.43Z" transform="translate(0 0.03)"/><path d="M314.78,281.78a4.74,4.74,0,0,1,.61,2,5.89,5.89,0,0,1-.23,2.16A4.51,4.51,0,0,1,314,287.9a2.73,2.73,0,0,1-2,.86,4.8,4.8,0,0,0,1.35-1.39,7.36,7.36,0,0,0,.74-1.7,14.1,14.1,0,0,0,.41-1.87C314.65,283.15,314.72,282.49,314.78,281.78Z" transform="translate(0 0.03)"/><path d="M282.55,336c-.9-4.35,4.75-9.6,16.56-9.15s17.51,2.71,17.34,7-11.41-2.27-17.29-1.47S284,339.93,282.55,336Z" transform="translate(0 0.03)" fill="#feb67f"/><path d="M310.74,286.43c.37-1.25-5.34-1.91-7.05.62C308.14,287.53,310.27,288.08,310.74,286.43Z" transform="translate(0 0.03)"/><path d="M336,301.79A127.88,127.88,0,0,1,321.37,319c-6.15,5.88-12.94,10.07-23.73,9.94-10.79.13-17.58-4.06-23.74-9.94a128.6,128.6,0,0,1-14.61-17.18,58.66,58.66,0,0,0,18.16,1.88c5.12-.22,7.15-1.28,12.8-.9s5.88,2,7.39,2,1.73-1.59,7.38-2,7.69.68,12.81.9A58.69,58.69,0,0,0,336,301.79Z" transform="translate(0 0.03)" fill="#e4003f"/><path d="M259.29,301.79A40.45,40.45,0,0,0,274,314.29a27.45,27.45,0,0,1-4.95-9A52.51,52.51,0,0,1,259.29,301.79Z" transform="translate(0 0.03)"/><path d="M336,301.79a99.69,99.69,0,0,1-9.59,2.86,27.45,27.45,0,0,1-4.44,8.76A45,45,0,0,0,336,301.79Z" transform="translate(0 0.03)"/><path d="M269.07,305.28a27.45,27.45,0,0,0,4.95,9c14.48,7.38,33.25,7,47.94-.88a27.45,27.45,0,0,0,4.44-8.76C306.94,309.45,284.68,309.34,269.07,305.28Z" transform="translate(0 0.03)" fill="#f6f4f8"/><path d="M324.76,139c16.7,18.76,38,28.14,43.06,58.15,5.46,32.2-1.7,49.16-1.7,49.16s15.6-19.16,16.05-44.47-3.62-61.26-25.39-78.89S308.07,120.21,324.76,139Z" transform="translate(0 0.03)" fill="#362118"/><path d="M286.06,82.69C250.12,87,202.74,127.13,189.53,189a90,90,0,0,0,28.09,5.6C266.76,191.86,325,159.7,331.2,135.24,342.13,92.3,328.06,77.72,286.06,82.69Z" transform="translate(0 0.03)" fill="#362118"/><path d="M277.7,234.82C271,229.5,263.45,224,255,224.9s-10.93,2.58-13.88,5.91c-5.34,0-9.61-3.08-10.3-4.19,3.61.41,5.78.21,11.28-2.91s12.23-2.38,16.58-1.6S272.27,227.75,277.7,234.82Z" transform="translate(0 0.03)"/><path d="M331.74,129.82l-6.46,5.78c-2,1.9-4.09,3.89-6.63,6.54-.9.87-2.29,2.34-5.42,5.15a115.57,115.57,0,0,1-15.13,11.29c-2.79,1.77-5.42,3.23-7.34,4.28l-3.15,1.64s-4.08,2.07-9.48,4.29a169.23,169.23,0,0,1-17.05,5.88c-5.45,1.56-8.9,2.3-10.68,2.74a89.76,89.76,0,0,0-17.23,5.64,52.4,52.4,0,0,0,18.31-.87c1.83-.43,5.35-1.17,11-2.77A171.61,171.61,0,0,0,280,173.33c5.58-2.3,9.8-4.46,9.8-4.46l3.27-1.69c2-1.08,4.74-2.59,7.64-4.43A119.38,119.38,0,0,0,316.5,151c3.28-2.95,4.73-4.5,5.66-5.42a40.84,40.84,0,0,0,5.92-7.7A46.43,46.43,0,0,0,331.74,129.82Z" transform="translate(0 0.03)" fill="#4d3327"/><path d="M330.68,106.54c-4.34,4.81-8.55,7.81-12.84,11.24s-8.79,7.19-14.25,12.13c-.92.84-2.14,1.93-3.94,3.5s-4.17,3.58-7.46,6.21c-2.68,2.14-7.29,5.62-11.34,8.38-2,1.4-3.9,2.6-5.27,3.48l-2.23,1.39s-.72.45-1.92,1.14l-2.11,1.22-2.65,1.45c-3.79,2.06-8.51,4.31-11.94,5.78A132,132,0,0,1,242,167.13l-2.37.72-2.07.56c-1.27.35-2.33.63-3.2.83-7,1.68-12.54,2.87-17.87,4.09s-10.46,2.4-16.86,3.39A66.16,66.16,0,0,0,217,180.49a65,65,0,0,0,19.63-1.73c.94-.2,2.09-.5,3.47-.87l2.23-.6,2.57-.77a137.25,137.25,0,0,0,13.71-5c3.68-1.57,8.73-4,12.75-6.2l2.81-1.56,2.24-1.31c1.27-.74,2-1.22,2-1.22l2.38-1.46c1.45-.92,3.45-2.18,5.58-3.65,4.3-2.89,9.14-6.55,11.94-8.81,3.43-2.76,5.91-4.88,7.78-6.51s3.13-2.78,4.08-3.67a89.68,89.68,0,0,0,12.89-14.45A48,48,0,0,0,330.68,106.54Z" transform="translate(0 0.03)" fill="#4d3327"/><path d="M333.55,97.15c-5-2.75-8.56-4.12-14.42-3.21-1.59.25-4.76.82-8.57,1.77a114.78,114.78,0,0,0-12.42,3.81,109.85,109.85,0,0,0-10.84,4.69c-1.4.69-2.54,1.3-3.33,1.73l-1.23.67s-.45.23-1.22.69-1.91,1.07-3.23,1.91a110.08,110.08,0,0,0-9.73,6.73,111.89,111.89,0,0,0-9.78,8.61c-2.79,2.78-4.91,5.22-6,6.44a24.2,24.2,0,0,0-2.31,3.32,17.51,17.51,0,0,0-1.36,3.31,27.53,27.53,0,0,0-.94,7.43,49.61,49.61,0,0,0,6.66-3.09,19.22,19.22,0,0,0,2.7-2,21.06,21.06,0,0,0,2.66-2.62c1-1.09,2.94-3.31,5.49-5.84a105.24,105.24,0,0,1,8.9-7.84,103.4,103.4,0,0,1,8.82-6.16c1.2-.76,2.24-1.32,2.93-1.75s1.11-.63,1.11-.63l1.13-.6c.72-.39,1.75-.94,3-1.56a100.44,100.44,0,0,1,9.9-4.25,111.17,111.17,0,0,1,11.39-3.49c3.49-.87,6.41-1.42,7.86-1.68C326.17,102.6,329,100.64,333.55,97.15Z" transform="translate(0 0.03)" fill="#4d3327"/><path d="M309.05,118.26c-5.21,3.89-9.5,6.94-14,10-1.13.77-2.24,1.59-3.38,2.42s-2.37,1.61-3.59,2.49l-1.84,1.37-2,1.34c-1.35.91-2.7,2-4.2,3l-4.32,2.84c-1,.67-2.17,1.29-3.52,2.1s-2.88,1.76-4.75,2.66c-.45.2-1.45.77-1.45.77l-.77.37-.73.36a131.51,131.51,0,0,1-19.8,7.8c-1.72.53-3.39.93-4.95,1.41l-2.29.7-2.22.58c-1.45.4-2.84.81-4.19,1.24s-2.7.71-4,1.1c-5.26,1.59-10.33,3-16.62,4.63A73.51,73.51,0,0,0,228,167.94c1.45,0,2.92,0,4.44-.07s3-.29,4.65-.5l2.45-.33,2.53-.54c1.72-.39,3.53-.76,5.4-1.32a134.91,134.91,0,0,0,21.42-8.35l.78-.41.81-.44s1.14-.52,1.59-.79c2-1,3.66-2,5.13-2.88s2.76-1.56,3.79-2.29l4.65-3.1c1.61-1.1,3-2.29,4.42-3.37l2-1.63,1.81-1.7c1.16-1.13,2.26-2.22,3.31-3.31s1.93-2.28,2.84-3.41A73.75,73.75,0,0,0,309.05,118.26Z" transform="translate(0 0.03)" fill="#4d3327"/><path d="M325.17,96.36l-4.64-.69c-.76-.11-1.51-.22-2.25-.3l-2.2-.11c-1.45-.06-2.9-.11-4.34-.12s-2.86.14-4.31.26-2.93.24-4.42.51-3,.59-4.57,1c-.79.18-1.6.36-2.41.57l-2.45.77c-1.67.54-3.42,1.12-5.25,1.8-2.41,1-6.45,2.52-14.39,6.5-2.07,1.07-6.86,3.79-6.86,3.79l-.67.36-1.59,1L261,114l-1.84,1.15-1.7,1.18-3.14,2.18c-2,1.34-3.69,2.7-5.19,3.86s-2.82,2.16-3.9,3.08l-2.68,2.34-2.12,1.89a24.86,24.86,0,0,0-1.95,1.88c-1.21,1.27-2.35,2.5-3.42,3.71-.53.6-1.06,1.18-1.55,1.79s-.92,1.24-1.38,1.85q-1.34,1.84-2.53,3.64a35.66,35.66,0,0,0-2.17,3.74c-.68,1.27-1.32,2.55-2,3.85l-.47,1-.41,1c-.27.69-.54,1.39-.81,2.11-.52,1.41-1,2.87-1.61,4.4l3.44-3.16,1.6-1.5.77-.73.82-.68c1.09-.91,2.14-1.8,3.16-2.7s2-1.83,3.09-2.68,2.11-1.77,3.17-2.71l1.58-1.44,1.71-1.43c1.15-1,2.32-2,3.53-3.11.59-.56,1.24-1.1,1.9-1.64l2-1.72,2.51-2.17c1-.85,2.26-1.76,3.66-2.86s3-2.36,4.87-3.61l3-2,1.59-1.1,1.73-1.08,3.63-2.25,1.48-.94.63-.35,6.47-3.51c7.46-3.75,11.22-5.14,13.47-6.15,1.7-.65,3.3-1.24,4.82-1.86l2.23-.92,2.15-.8c1.41-.53,2.75-1.07,4.06-1.63s2.61-1,3.88-1.5,2.51-1.07,3.78-1.56,2.55-1,3.86-1.47l2-.8,2.07-.69Z" transform="translate(0 0.03)" fill="#4d3327"/><path d="M301.82,83.88c-1.61,0-3.09.06-4.54.13-.73,0-1.44.09-2.15.15a13.67,13.67,0,0,0-2.12.28c-1.4.27-2.83.61-4.37,1-.77.21-1.56.45-2.39.71s-1.65.66-2.53,1L279.56,89c-.9.36-1.83.86-2.84,1.37l-3.86,2c-1.39.67-2.75,1.49-4.15,2.31l-4.3,2.49-4.32,2.8c-3,1.84-5.81,4-8.78,6.1a219.25,219.25,0,0,0-16.93,14c-10.75,9.85-20,20.27-25.91,28.92-2.93,4.29-5,8-6.4,10.64L200,163.75s-.19.37-.52,1.09-.82,1.76-1.44,3.11c-1.18,2.71-2.88,6.62-4.54,11.5a183.94,183.94,0,0,0-8.55,37.83c-.88,7.23-1.44,14.65-1.75,21.86-.13,3.61-.24,7.17-.27,10.62,0,1.73,0,3.43,0,5.1v4.78c0,5,.14,9.08.2,11.12a63.8,63.8,0,0,0,3,18,68.75,68.75,0,0,0,1.9-18.12c0-2-.13-6.09-.16-11,0-1.54,0-3.12,0-4.73s0-3.34,0-5.05c0-3.41.14-6.92.27-10.47.3-7.11.85-14.39,1.71-21.47a179.65,179.65,0,0,1,8.29-36.82c1.61-4.73,3.25-8.5,4.38-11.12l1.39-3c.32-.69.5-1,.5-1l2-4c1.39-2.48,3.34-6.09,6.15-10.19,5.54-8.17,14.65-18.43,25.16-28,5.22-4.86,10.92-9.41,16.55-13.69,2.89-2,5.67-4.16,8.55-5.94l4.19-2.72,4.16-2.42c1.36-.79,2.68-1.58,4-2.23l3.72-1.9c1-.49,1.87-1,2.73-1.33l4-1.74L288,90.65c.77-.3,1.5-.61,2.2-.91,1.4-.61,2.67-1.23,3.9-1.88.61-.35,1.23-.63,1.85-.92s1.24-.6,1.87-.93C299.08,85.37,300.38,84.66,301.82,83.88Z" transform="translate(0 0.03)" fill="#4d3327"/><path d="M216.64,192c-1.52,2.84-3,5.46-4.18,8.11-.59,1.32-1.19,2.62-1.71,3.94s-1,2.67-1.45,4a75.76,75.76,0,0,0-3.57,19.19c-.06,1.31-.13,3-.24,5.54s-.09,5.8.07,10.23A165.63,165.63,0,0,0,208,265.85a179.27,179.27,0,0,0,6.69,26c2.76,8.21,5.86,15.47,8.17,20.62,1.13,2.53,2,4.59,2.68,6,.28.67.52,1.21.63,1.52l.19.5s.06.13.17.45l.46,1.37c.42,1.19,1,2.94,1.58,5.13a101.84,101.84,0,0,1,3.23,17.67,96.83,96.83,0,0,1-.46,22.51,84.17,84.17,0,0,1-5.43,20.24,74.45,74.45,0,0,1-6,11.77,69.93,69.93,0,0,1-4.42,6.37c-4.32,5.61-8,9.77-11.63,13.84s-7.12,8-11.77,12.52a65.57,65.57,0,0,0,16.36-7A55.39,55.39,0,0,0,223.22,412a80.52,80.52,0,0,0,5-7.15,84.65,84.65,0,0,0,6.81-13.25A93.54,93.54,0,0,0,241.12,369a106.71,106.71,0,0,0,.49-24.8A110.26,110.26,0,0,0,238,324.82c-.68-2.41-1.28-4.33-1.75-5.65l-.52-1.51c-.11-.34-.2-.55-.2-.55l-.26-.68c-.17-.46-.42-1-.74-1.81-.65-1.45-1.57-3.55-2.72-6.13-2.25-5.06-5.19-12-7.81-19.78a169.83,169.83,0,0,1-6.3-24.59,158.11,158.11,0,0,1-2.33-21.48c-.16-4.18-.11-7.27-.09-9.63l.19-5.21c.39-7.28.77-13,.87-18.51S216.54,198.35,216.64,192Z" transform="translate(0 0.03)" fill="#4d3327"/><path d="M213,186.32a53.58,53.58,0,0,0-7.4,16.75c-.32,1.24-.85,3.27-1.8,7.51-.89,3.95-2,9.29-2.94,15.09s-1.78,12.08-2.33,17.87c-1.14,11.58-1.15,21.22-1.15,21.22s0,2,0,5.31.19,7.9.6,13,1.09,10.83,2,16.28,2,10.71,3,15.05c1.28,5.64,2.18,9.11,2.64,10.91a62.32,62.32,0,0,0,7,16.87,70.63,70.63,0,0,0-2.26-18.07c-.44-1.79-1.32-5.23-2.57-10.79-1-4.28-2-9.43-2.92-14.77s-1.56-10.86-2-15.86-.55-9.49-.6-12.71,0-5.2,0-5.2,0-9.42,1.16-20.8c.55-5.68,1.36-11.84,2.3-17.54s2-10.93,2.87-14.82c.93-4.16,1.44-6.15,1.75-7.38A87.6,87.6,0,0,0,213,186.32Z" transform="translate(0 0.03)" fill="#4d3327"/><path d="M203.05,280.7a65.35,65.35,0,0,1,6.38,15.61c1.47,5.11,2.83,10.47,4.24,17.49a115.43,115.43,0,0,1,1.92,14.54c.16,2.31.35,6.21.37,9.54s-.05,6.1-.05,6.1-.06,2.31-.25,5.26-.51,6.53-.79,9.09a190.94,190.94,0,0,1-3.57,21.45c-1.62,7.13-2.85,12.69-4,18-.59,2.64-1.15,5.24-1.89,7.88a39.41,39.41,0,0,1-1.3,4,14.26,14.26,0,0,1-2.2,4,14.42,14.42,0,0,0,4-2.66,30.82,30.82,0,0,0,3.17-3.32,48.6,48.6,0,0,0,4.93-7.26A70.38,70.38,0,0,0,220.84,382a191.21,191.21,0,0,0,3.83-22.58c.3-2.68.63-6.46.8-9.57s.23-5.56.23-5.56.12-2.91.1-6.46-.19-7.71-.4-10.18a117.63,117.63,0,0,0-2.14-15.78,53.47,53.47,0,0,0-7.33-18.6A40,40,0,0,0,203.05,280.7Z" transform="translate(0 0.03)" fill="#4d3327"/><path d="M192,294.87c-1.93,12.84-2.58,21.48-1.42,36.38.19,2.52.54,6.63,1.07,15.16.15,2.67.41,7.17.57,11s.26,7,.26,7,0,2.64.09,6,0,7.46-.05,10.37a196,196,0,0,1-1.51,21.71,177.7,177.7,0,0,1-3,17.63,30.08,30.08,0,0,1-2.53,7.11,11.93,11.93,0,0,1-6,5.68,13,13,0,0,0,9-2.92,24.24,24.24,0,0,0,6-7c3.13-5.31,5-11.42,6.13-19.13A191.94,191.94,0,0,0,202.41,381c.08-3,.09-7.23,0-10.69l-.14-6.16s-.07-3.23-.22-7.14-.39-8.48-.57-11.19c-.55-8.66-.93-12.82-1.14-15.37C199.05,315.36,196.33,307.06,192,294.87Z" transform="translate(0 0.03)" fill="#4d3327"/><path d="M249.64,339.3c-.1,1.63-.18,3.1-.23,4.49s-.28,2.75-.35,4.11-.29,2.75-.35,4.24-.33,3.09-.42,4.89c-.09.61-.19,1.4-.35,2.56-.09.58-.16,1.25-.29,2l-.55,2.67c-1.21,6.38-5.18,16.78-10.25,24.76-.3.51-.6,1-.9,1.5L235,392l-1.8,2.68c-1.23,1.65-2.28,3.19-3.28,4.41l-2.32,2.9-.89,1-.76.87c-.5.55-1.17,1.4-2.1,2.36-1.83,2-4.4,4.67-7.51,7.47a115.78,115.78,0,0,1-20.72,15.21c-2.43,1.4-4.47,2.39-6.07,3.19l-3.65,1.63c-3.38,1.34-6,2.49-8.51,3.51l-1.88.81-1.92.76-1,.41-1,.36-2.2.77,2.32.33c.38,0,.76.1,1.13.13l1.1,0c.73,0,1.45,0,2.17,0s1.43-.1,2.16-.17a35.08,35.08,0,0,0,9.5-2.47c.88-.38,2.16-.93,3.89-1.71s3.85-1.88,6.4-3.34a120.12,120.12,0,0,0,21.61-15.87c3.23-2.92,5.9-5.74,7.8-7.78,1-1,1.66-1.89,2.18-2.47l.79-.9.93-1.08,2.43-3c1-1.26,2.14-2.87,3.43-4.59l1.88-2.8,1-1.49,1-1.57c5.32-8.36,9.57-19.4,10.86-26.27l.59-2.88c.14-.84.21-1.57.3-2.19.17-1.25.29-2.11.36-2.77a48.35,48.35,0,0,0,.08-5.32,34.08,34.08,0,0,0-.6-4.52c-.35-1.42-.71-2.79-1.18-4.16S250.3,340.76,249.64,339.3Z" transform="translate(0 0.03)" fill="#4d3327"/><path d="M339.13,112.75c3.91,2.91,6.91,5.48,10,8.12s6.27,5.41,10.18,9.09l1.16,1.12a21.69,21.69,0,0,1,1.57,1.59c.59.63,1.3,1.35,2.09,2.23s1.65,1.9,2.62,3.1a98.05,98.05,0,0,1,7.74,11.32c.63,1,1.18,2,1.68,3s1,1.75,1.31,2.47l1.16,2.32s.37.74.93,2c.28.63.61,1.37,1,2.2l1.15,2.76c1.63,4,3.35,8.88,4.47,12.44,2.49,8.07,3.61,13.22,4.24,15.88,1.24,5.42,2.35,9.64,3.67,13.63s2.78,7.75,4.59,12.26a100.08,100.08,0,0,0,.72-13.16,74.25,74.25,0,0,0-1.81-14.33c-.63-2.76-1.77-8.07-4.35-16.49-1.16-3.71-3-8.87-4.71-13-.43-1-.85-2-1.22-2.91L386.25,156c-.59-1.32-1-2.11-1-2.11L384,151.4c-.36-.77-.87-1.65-1.39-2.64s-1.11-2.07-1.78-3.17a99.87,99.87,0,0,0-8.36-12.22c-1.06-1.31-2-2.4-2.87-3.38s-1.64-1.74-2.29-2.44-1.22-1.26-1.73-1.73l-1.28-1.22A45.8,45.8,0,0,0,352,116.3,50.6,50.6,0,0,0,339.13,112.75Z" transform="translate(0 0.03)" fill="#4d3327"/><path d="M330.94,124.25a37.58,37.58,0,0,1,7.11,5.16c.5.47,1,.89,1.46,1.36l1.34,1.44c.92.9,1.69,2,2.53,2.94A100.61,100.61,0,0,1,353,149.86a90.36,90.36,0,0,1,6,13.24c.47,1.31,1.29,3.51,1.9,5.43s1.13,3.49,1.13,3.49.41,1.34.88,3.06,1,3.81,1.39,5.33c1.35,5.44,2.25,9.91,2.89,13.47.34,1.77.6,3.32.82,4.64s.41,2.44.54,3.34c1.14,7.31,2.21,13,3.55,18.45s2.88,10.57,4.74,16.77a120,120,0,0,0,2.41-17.43,95.91,95.91,0,0,0-1-19.26c-.13-.94-.31-2.08-.54-3.46s-.48-3-.82-4.83c-.67-3.69-1.59-8.35-3-14.07-.36-1.59-1-3.8-1.49-5.61s-1-3.23-1-3.23-.46-1.7-1.15-3.73-1.51-4.43-2-5.83a96.27,96.27,0,0,0-6.72-14.56c-3.94-6.92-8.32-11.83-13.39-15.26A31.57,31.57,0,0,0,330.94,124.25Z" transform="translate(0 0.03)" fill="#4d3327"/><path d="M333.24,121.1a82.68,82.68,0,0,0,14.28,11.12,69,69,0,0,1,6,4.36,59.3,59.3,0,0,1,6,5.67,57.14,57.14,0,0,1,5.8,7.71c.86,1.3,1.57,2.63,2.25,3.81s1.18,2.33,1.66,3.26c.86,1.9,1.39,3.09,1.39,3.09s.11.25.29.71.45,1.14.77,2,.69,1.85,1.08,3l.62,1.78.6,2a146.12,146.12,0,0,1,4,16.94c.24,1.4.45,2.67.64,3.81s.3,2.16.43,3.06c.25,1.81.44,3.13.54,4a84.17,84.17,0,0,0,4,17.71c1.14-6.36,1.75-10.74.9-18.29-.09-.94-.28-2.29-.53-4.14-.13-.92-.26-2-.44-3.14l-.64-3.91a148,148,0,0,0-4.11-17.53q-.33-1.05-.63-2c-.22-.65-.44-1.28-.65-1.87-.41-1.19-.78-2.26-1.14-3.13l-.82-2.07c-.19-.49-.31-.76-.31-.76s-.57-1.26-1.47-3.29c-.51-1-1.08-2.19-1.77-3.48s-1.48-2.7-2.41-4.11a58.9,58.9,0,0,0-12.8-14.55,70.8,70.8,0,0,0-6.4-4.66C343.66,124,339.43,122.9,333.24,121.1Z" transform="translate(0 0.03)" fill="#4d3327"/><path d="M383.56,247.13a62.54,62.54,0,0,1-1.85,12.58c-.92,3.9-2,7.9-3.56,13.14-.52,1.78-1.4,4.66-3.51,10.73-1.2,3.47-2.88,8.16-4.48,13.38a128.63,128.63,0,0,0-4,16.38,97.15,97.15,0,0,0-1.33,14.08c-.05,1.84,0,3.26,0,4.24v1.54s0,7.34.25,16.74.93,20.84,1.82,29c.47,4.35.92,7.87,1.37,10.65s.81,4.83,1.08,6.23a51.18,51.18,0,0,0,4.59,14,38.29,38.29,0,0,0,3.45,5.58c.72.87,1.45,1.73,2.2,2.59s1.73,1.6,2.61,2.4c-1.9-4.46-2.4-8.34-3.17-12.33s-1.5-8.24-2.47-13.6c-.24-1.34-.62-3.28-1-6s-.85-6.08-1.31-10.31c-.86-7.95-1.53-19.19-1.8-28.46s-.28-16.55-.28-16.55v-1.52c0-1,0-2.41,0-4.07a91.61,91.61,0,0,1,1.26-13,121.37,121.37,0,0,1,3.77-15.44c1.53-5,3.19-9.63,4.39-13.13,2.12-6.14,3.05-9.22,3.58-11.11a43.33,43.33,0,0,0,1.88-14.77A33.92,33.92,0,0,0,383.56,247.13Z" transform="translate(0 0.03)" fill="#4d3327"/><path d="M361.79,321.72a45.27,45.27,0,0,0-4.93,7.33,39.3,39.3,0,0,0-3.37,9.14c-.3,1.27-.82,3.34-1.5,7.71-.13.69-.26,1.86-.38,2.85s-.18,1.82-.18,1.82l-.16,1.57c-.06.88-.13,2-.18,2.72a83.15,83.15,0,0,0,.19,11.5,26.53,26.53,0,0,0,2.57,9.66,19.1,19.1,0,0,0,5.79,6.9,30,30,0,0,1-2.39-8.06c-.45-2.61-.79-5.35-1.1-8.93a84.58,84.58,0,0,1-.14-10.82c0-.72.11-1.74.16-2.58l.13-1.48s.06-.78.2-1.72.25-2.05.36-2.7c.63-4.14,1.12-6.1,1.39-7.31.84-3.56,1.47-6.36,2-9.07S361.18,324.9,361.79,321.72Z" transform="translate(0 0.03)" fill="#4d3327"/><path d="M390.53,210.37a48,48,0,0,1,1,8.46c.16,2.71.3,5.55.68,9.28.13,1.27.34,3.33.79,7.6.48,4.72,1.11,11,1.49,17.85a180.85,180.85,0,0,1,.06,20.82c-.15,1.66-.3,3.28-.45,4.85-.08.79-.14,1.56-.24,2.31s-.23,1.49-.35,2.21c-.23,1.43-.44,2.8-.65,4.08s-.53,2.46-.76,3.54-.43,2.07-.64,2.93-.41,1.6-.57,2.21l-.49,1.88L390,300l-1.27,4.34c-1.06,3.66-2.71,8.75-4.54,14.5s-3.75,12.21-5.3,18.6c-.38,1.59-.69,3.2-1,4.77l-.49,2.33c-.15.78-.26,1.55-.39,2.31-.24,1.53-.48,3-.71,4.44s-.31,2.83-.47,4.16-.28,2.77-.4,4-.1,2.25-.14,3.19c-.08,1.88-.13,3.26-.17,4.2a48.81,48.81,0,0,0,.24,5.21c.16,1.57.32,3,.6,4.43a85.56,85.56,0,0,0,2.52,8.44c.51-3.22.89-5.87,1.06-8.64.13-1.39.29-2.81.36-4.34s.05-3.17.12-5c0-.92.1-2.24.18-4.05,0-.9.07-1.92.14-3.06s.25-2.42.39-3.82.23-2.61.45-4,.46-2.82.69-4.28c.12-.74.23-1.48.37-2.23l.48-2.26c.33-1.52.63-3.07,1-4.62,1.5-6.2,3.39-12.54,5.19-18.26s3.47-10.85,4.55-14.59c.55-1.87,1-3.38,1.29-4.42l.42-1.63.51-1.93c.16-.63.36-1.39.59-2.27s.41-1.91.66-3,.51-2.36.79-3.68.45-2.76.69-4.26l.37-2.3c.1-.79.16-1.6.24-2.42.16-1.64.34-3.34.48-5.07a184.09,184.09,0,0,0,0-21.4c-.39-7-1-13.34-1.51-18.08-.47-4.29-.69-6.36-.83-7.63a40.11,40.11,0,0,0-2-9.5A24,24,0,0,0,390.53,210.37Z" transform="translate(0 0.03)" fill="#4d3327"/><path d="M398.85,248.9a156,156,0,0,0-2.41,17.36c-.11,1.39-.15,2.79-.24,4.23s-.18,2.9-.22,4.43c0,3.05-.23,6.32-.21,10-.13,2.48-.1,6.52-.9,14.85-.22,1.62-.62,5.48-.62,5.48s-.55,3.2-.81,5c-.45,2.75-1,5.22-1.42,7.46s-1,4.2-1.38,5.95c-.91,3.49-1.56,6.05-2.09,7.81a184.68,184.68,0,0,0-4.38,18.35,170.15,170.15,0,0,0-2,17.4c3.44-5.5,6.25-10.09,8.79-15.15a102.72,102.72,0,0,0,7-17.91c.56-1.8,1.26-4.48,2.22-8.12.43-1.84.91-3.92,1.46-6.25s1-5,1.51-7.9c.31-1.88.8-5.29.8-5.29s.54-4.09.71-5.82c.84-8.83.79-13.09.89-15.7a95.28,95.28,0,0,0-.5-10.46c-.18-1.58-.38-3.1-.59-4.57s-.56-2.89-.86-4.29C402.3,260.11,400.83,255.08,398.85,248.9Z" transform="translate(0 0.03)" fill="#4d3327"/><path d="M397.64,339.21a118.52,118.52,0,0,0-7.16,16.08,86.36,86.36,0,0,0-4.19,18.92c-.15,1.3-.33,3-.53,5.5s-.41,5.78-.48,10.24c0,.63,0,1.69,0,2.6s.05,1.65.05,1.65v1.43c0,.8,0,1.78.09,2.48a104.14,104.14,0,0,0,1.75,14.68,80.07,80.07,0,0,0,2.21,8.51,49.31,49.31,0,0,0,4.5,10.06,39.63,39.63,0,0,0,5.86,7.48,39,39,0,0,0,15.43,9.34,62.06,62.06,0,0,1-9.71-13.69c-1.28-2.27-2.35-4.71-3.53-7.3s-2.22-5.5-3.22-8.85c-.52-1.64-1.19-4.08-1.9-7.46a97.78,97.78,0,0,1-1.55-13.27c0-.63-.08-1.53-.1-2.27l-.05-1.32v-3.95c.06-4.15.25-7.24.43-9.6s.35-4,.47-5.21c.75-7.29,1.31-13.05,1.51-18.62S397.72,345.69,397.64,339.21Z" transform="translate(0 0.03)" fill="#4d3327"/><path d="M352,342.21c-4.42,3.79-6.94,7.05-7.84,13.21a84.46,84.46,0,0,0-.75,9.14,94.73,94.73,0,0,0,.56,13.56,90.22,90.22,0,0,0,2.18,12.13c.37,1.6.78,2.89,1,3.79s.42,1.41.42,1.41l.46,1.4c.15.44.33,1,.53,1.62l.79,2.09a76.79,76.79,0,0,0,5.36,11.27,67,67,0,0,0,8.2,11.22,58,58,0,0,0,6.93,6.44,21.57,21.57,0,0,0,3.72,2.32,20,20,0,0,0,3.64,1.18,23.21,23.21,0,0,0,3.74.31,40.61,40.61,0,0,0,4.08-.39c-.81-1.24-1.52-2.32-2.21-3.31a28,28,0,0,0-2-2.8,18.42,18.42,0,0,0-2.18-2.5,29.31,29.31,0,0,0-2.72-2.46,55.18,55.18,0,0,1-5.74-5.43,57.54,57.54,0,0,1-7-9.56,67.3,67.3,0,0,1-4.7-9.81l-.71-1.84-.47-1.43-.42-1.24s-.14-.45-.36-1.25-.59-1.95-.9-3.38A80.17,80.17,0,0,1,353.72,377a88.46,88.46,0,0,1-.5-12.19c.13-3.68.4-6.69.61-8.18a25.82,25.82,0,0,0-.09-7.18A70.74,70.74,0,0,0,352,342.21Z" transform="translate(0 0.03)" fill="#4d3327"/><path d="M364.47,541.28c.07-.37.14-.74.2-1.11a1.6,1.6,0,0,0-1.21-1.91c-.72-.17-1.47-.22-2.21-.33a13.36,13.36,0,0,1-2-.32,2.31,2.31,0,0,1-1.82-2,1.74,1.74,0,0,1,.45-1.44c.8-.85,1.63-1.67,2.46-2.5a.69.69,0,0,1,1,0l2.49,2.46c.55.54,1.08,1.11,1.63,1.65s1.05,1,1.55,1.53c.22.23.51.4.56.78s-.3.72-.59,1c-.56.55-1.14,1.09-1.72,1.63l-.7.64Z" transform="translate(0 0.03)" fill="#fff" fill-rule="evenodd"/><path d="M357.16,536.4a7.57,7.57,0,0,0-.14.77,8.21,8.21,0,0,0,0,1,1.6,1.6,0,0,0,1.34,1.44,11.13,11.13,0,0,0,2.7.31,4.15,4.15,0,0,1,2.19.67,2.25,2.25,0,0,1,1.05,1.82,1.83,1.83,0,0,1-.52,1.28c-.38.42-.77.82-1.17,1.22s-.86.86-1.3,1.29a.77.77,0,0,1-.85,0l-1.4-1.39-1.14-1.15-1.69-1.7-1.61-1.59a2.93,2.93,0,0,1-.38-.41.58.58,0,0,1,0-.74c.24-.27.5-.51.76-.76Z" transform="translate(0 0.03)" fill="#fff" fill-rule="evenodd"/><path d="M386.66,538.87V536c0-.43.1-.55.53-.63l.53-.08a1.92,1.92,0,0,1,1.79.85c.48.61,1,1.17,1.56,1.75.23.25.45.51.69.75.08.07.25.15.33.11s.15-.2.15-.32c0-.79,0-1.59,0-2.39,0-.49.1-.57.58-.67a2.67,2.67,0,0,1,1.09,0c.43.09.55.22.55.65v5.74c0,.51-.14.72-.65.75a7.2,7.2,0,0,1-1.23-.08.72.72,0,0,1-.4-.24l-2.74-3s0-.05-.06-.06-.27-.18-.33-.14a.46.46,0,0,0-.16.34c0,.84,0,1.67,0,2.51,0,.48-.05.61-.53.68a6.42,6.42,0,0,1-1.31,0c-.33,0-.38-.29-.38-.57v-3Z" transform="translate(0 0.03)" fill="#fff" fill-rule="evenodd"/><path d="M373.07,542.62a9.1,9.1,0,0,1-3.71-.74.6.6,0,0,1-.17-1.09l.1-.1a.85.85,0,0,1,1.24-.24A5,5,0,0,0,373,541a1.82,1.82,0,0,0,.69-.15.46.46,0,0,0,.24-.35.48.48,0,0,0-.24-.38,13.67,13.67,0,0,0-1.67-.44,7.61,7.61,0,0,1-2.13-.65,1.76,1.76,0,0,1-.14-3,4.36,4.36,0,0,1,2.91-.74,15.11,15.11,0,0,1,2.1.28,3.75,3.75,0,0,1,.9.33.59.59,0,0,1,.12.83,3,3,0,0,1-.54.58.76.76,0,0,1-.83,0,4.54,4.54,0,0,0-2.43-.4.54.54,0,0,0-.48.46.46.46,0,0,0,.41.45l2.07.46a5.26,5.26,0,0,1,1.93.79,1.88,1.88,0,0,1,.51,1.73,2.28,2.28,0,0,1-1.7,1.55A13.91,13.91,0,0,1,373.07,542.62Z" transform="translate(0 0.03)" fill="#fff" fill-rule="evenodd"/><path d="M383,537.68v-1.77c0-.37.12-.48.49-.57a2.68,2.68,0,0,1,1.35,0c.31.07.45.2.45.52,0,1.37.05,2.74-.06,4.09a2.62,2.62,0,0,1-2,2.35,5.52,5.52,0,0,1-2.21.28,4.47,4.47,0,0,1-2.35-.74,2.66,2.66,0,0,1-1.07-2.1c-.05-1.3,0-2.6,0-3.9a.48.48,0,0,1,.41-.5,3.05,3.05,0,0,1,1.41,0c.36.09.46.19.46.57,0,1.09,0,2.18,0,3.27a2.33,2.33,0,0,0,.21,1,1.66,1.66,0,0,0,2.14.51,1.37,1.37,0,0,0,.76-1.34v-1.65Z" transform="translate(0 0.03)" fill="#fff" fill-rule="evenodd"/><path d="M403,542.5h-.31a.89.89,0,0,1-1-.68,1.45,1.45,0,0,0-.11-.26.62.62,0,0,0-.69-.41c-.8,0-1.61,0-2.41,0a.43.43,0,0,0-.48.34,3.37,3.37,0,0,1-.33.69.78.78,0,0,1-.39.24,2.4,2.4,0,0,1-1.43,0,.47.47,0,0,1-.28-.72c.44-.91.87-1.82,1.32-2.73l1.53-3c.33-.65.72-.78,1.59-.74a1.43,1.43,0,0,1,1.37,1.07c.35.88.82,1.7,1.24,2.55s.91,1.83,1.35,2.74c.26.52.07.87-.5,1C403.31,542.5,403.14,542.49,403,542.5Zm-3.18-2.83h0a3.47,3.47,0,0,0,.56,0c.18,0,.32-.13.24-.33-.19-.43-.39-.86-.59-1.29a.22.22,0,0,0-.42,0c-.21.42-.41.85-.6,1.28-.08.19,0,.33.21.34S399.59,539.67,399.79,539.67Z" transform="translate(0 0.03)" fill="#fff" fill-rule="evenodd"/><path d="M406.7,535.33h2.91c.57,0,.72.14.73.72,0,.14,0,.27,0,.4a.5.5,0,0,1-.57.5h-1.48c-.39,0-.49.1-.49.48,0,1.39,0,2.77,0,4.16,0,.78-.18.77-.79.86a3.12,3.12,0,0,1-1.09-.09.51.51,0,0,1-.38-.59v-4.3c0-.48,0-.51-.52-.52h-1.34c-.41,0-.57-.12-.62-.53a2.24,2.24,0,0,1,0-.73c.05-.29.28-.37.55-.37h3.07Z" transform="translate(0 0.03)" fill="#fff" fill-rule="evenodd"/></svg>